<svg width="137" height="151" viewBox="0 0 137 151" fill="none" xmlns="http://www.w3.org/2000/svg">
<g id="Group 48">
<path id="Ellipse 1" d="M117 95.3588C117 125.536 84.6111 150 54.5075 150C24.4038 150 0 125.536 0 95.3588C0 65.1813 10.7839 38 40.8875 38C70.9912 38 117 65.1813 117 95.3588Z" fill="#7CFF3F"/>
<g id="Group 47">
<mask id="mask0_224_516" style="mask-type:alpha" maskUnits="userSpaceOnUse" x="0" y="0" width="137" height="151">
<path id="Ellipse 4" d="M109.38 95.4357C109.38 125.64 84.8945 150.126 54.69 150.126C24.4856 150.126 0 125.64 0 95.4357C0 65.2312 96.1357 0 126.34 0C156.545 0 109.38 65.2312 109.38 95.4357Z" fill="#FFCB3C"/>
</mask>
<g mask="url(#mask0_224_516)">
<g id="Group">
<g id="Group_2">
<g id="Group_3">
<path id="Vector" fillRule="evenodd" clipRule="evenodd" d="M45.5602 95.8083C41.8971 95.6591 38.2192 96.7275 34.7039 99.3514C22.7 108.311 21.0932 120.864 25.0132 133.645C30.5263 151.608 47.3547 169.981 59.2131 177.808C60.5989 178.722 62.4635 178.339 63.3786 176.956C64.2899 175.571 63.9093 173.705 62.5235 172.791C51.5283 165.534 35.8709 148.54 30.7607 131.883C27.5973 121.581 28.6245 111.39 38.2992 104.166C40.3919 102.604 42.5649 101.904 44.74 101.863C44.5816 103.349 44.4523 104.828 44.354 106.295C43.9659 112.166 45.7877 127.39 50.8732 137.187C54.8988 144.94 60.907 149.336 68.7461 146.173C73.2349 144.364 75.5601 140.377 75.8951 135.138C76.3074 128.677 73.4895 120.077 68.7233 112.601C64.7626 106.383 59.4814 100.968 53.8364 98.1068C53.0456 97.7055 52.247 97.352 51.4444 97.0481C55.9295 68.7268 71.6681 38.1351 92.6862 19.7733C93.9348 18.6829 94.0616 16.7854 92.9703 15.534C91.8799 14.2854 89.9797 14.1594 88.7311 15.2498C66.8077 34.4009 50.3464 66.2462 45.5602 95.8083ZM50.6395 103.239C50.5247 104.394 50.4277 105.546 50.3534 106.69C50.0042 111.96 51.6424 125.623 56.2073 134.418C58.6236 139.072 61.794 142.497 66.5004 140.599C68.809 139.669 69.7263 137.448 69.897 134.755C70.1255 131.184 69.0669 126.852 67.2045 122.514C64.3109 115.787 59.4471 109.056 53.8271 105.107C52.7891 104.378 51.723 103.746 50.6395 103.239Z" fill="black"/>
</g>
<g id="Group_4">
<path id="Vector_2" fillRule="evenodd" clipRule="evenodd" d="M86.9477 62.0189C84.3732 48.3905 87.6974 31.632 93.2052 18.8254C93.8597 17.3022 93.1564 15.5343 91.6322 14.877C90.1089 14.2225 88.3382 14.9269 87.6837 16.4502C81.7336 30.2905 78.2589 48.4101 81.0426 63.1343C81.3513 64.7638 82.9243 65.8358 84.5538 65.5271C86.1833 65.2185 87.2563 63.6484 86.9477 62.0189Z" fill="black"/>
</g>
</g>
<g id="Group_5">
<path id="Vector_3" fillRule="evenodd" clipRule="evenodd" d="M87.7257 15.822C80.4195 24.5749 66.4449 30.5683 55.0699 31.7456C53.4186 31.9181 52.2187 33.3976 52.3902 35.0461C52.5616 36.6946 54.0383 37.8955 55.6907 37.7258C68.4782 36.3977 84.1256 29.515 92.341 19.6732C93.4036 18.402 93.2321 16.5034 91.9581 15.4418C90.6841 14.3803 88.7883 14.5508 87.7257 15.822Z" fill="black"/>
</g>
</g>
<g id="Group_6">
<path id="Vector_4" fillRule="evenodd" clipRule="evenodd" d="M122.541 0.430335C122.512 -0.179739 122.518 -0.773654 122.547 -1.33121C122.645 -3.0079 124.203 -3.00212 124.324 -2.99981C124.578 -2.99404 125.71 -2.92248 125.981 -1.61518C125.998 -1.53726 126.039 -0.972787 126.05 -0.755192C126.073 -0.291143 126.085 0.164839 126.021 0.622539C126.079 1.39884 126.206 2.19765 126.448 2.94914C126.8 4.05847 127.372 5.08237 128.405 5.6278C130.252 6.609 132.682 6.56917 134.713 6.81851C135.562 6.9224 136.208 7.63001 136.237 8.48423C136.26 9.33903 135.66 10.0847 134.817 10.24C132.278 10.7098 129.357 13.0191 127.499 14.8788C126.927 15.4502 126.287 16.8111 125.571 17.6827C124.994 18.3811 124.353 18.8492 123.747 19.035C123.51 19.1072 122.2 19.3704 121.612 18.014C121.45 17.6331 120.879 15.6383 120.827 15.4109C120.515 14.1077 120.07 12.9435 119.199 11.9069C118.443 11.0082 117.525 10.2233 116.423 9.78809C115.978 9.61263 115.517 9.47929 115.055 9.34192C114.893 9.3223 114.437 9.26458 114.276 9.20975C113.947 9.10009 113.704 8.9281 113.531 8.75668C113.202 8.43231 113.035 8.04502 113.006 7.60406C112.983 7.31316 113.023 6.968 113.231 6.58533C113.387 6.31349 113.739 5.90426 114.374 5.63876C115.037 5.36114 116.463 5.09736 116.717 5.02868C118.483 4.55309 120.215 3.82991 121.571 2.57628C122.246 1.94947 122.402 1.27359 122.541 0.430335ZM123.672 5.33865C124.353 6.75042 125.369 7.93883 126.783 8.68742C127.366 8.99852 128.001 9.23458 128.659 9.41812C127.302 10.3624 126.044 11.4359 125.046 12.431C124.722 12.7548 124.37 13.2788 123.995 13.8543C123.557 12.3178 122.91 10.9378 121.848 9.67497C121.219 8.93041 120.509 8.24991 119.718 7.68255C121.15 7.11576 122.506 6.35737 123.672 5.33865Z" fill="black"/>
</g>
</g>
</g>
</g>
</svg>
