<svg width="190" height="128" viewBox="0 0 190 128" fill="none" xmlns="http://www.w3.org/2000/svg">
<g id="Group">
<path id="Vector" d="M135.488 61.2625C134.792 60.8736 133.825 60.5614 133.129 60.1725C132.398 58.6225 131.355 58.0392 129.533 58.8471C128.961 55.7881 126.756 55.2405 124.203 54.4984C121.303 53.5619 118.668 54.6 115.762 55.7147C114.795 55.4025 113.828 55.0903 112.785 54.507C111.977 52.6859 110.816 52.7215 109.265 53.4527C108.994 53.5294 108.646 53.3349 108.298 53.1405C107.343 48.7259 102.462 50.1063 100.263 47.5074C98.5645 45.6452 97.3565 48.6222 96.0007 49.0056C93.018 49.8492 89.9641 48.3704 86.9402 50.1041C85.661 50.7586 84.6175 50.1753 83.3795 49.9398C82.3004 48.1953 80.6735 48.6554 79.3177 49.0389C78.7753 49.1922 78.1563 49.0746 77.6139 49.228C77.1539 47.6013 75.7625 46.8235 74.3712 46.0457C72.2842 44.8792 69.2304 43.4005 70.244 40.7714C71.1397 38.7613 74.4292 39.0021 76.7874 40.092C78.7977 40.9874 79.1099 40.0208 78.921 38.3174C81.0137 37.4328 82.6762 38.1337 84.6099 38.758C86.1901 41.2392 88.3238 39.4645 90.0275 39.2755C96.0286 38.7496 101.676 40.0804 107.324 41.4112C112.972 42.742 118.619 44.0727 124.19 45.1324C133.204 46.9752 141.593 50.7516 149.906 54.2568C154.198 55.971 158.566 57.9563 162.858 59.6705C163.223 53.7114 160.605 48.5958 158.334 43.6746C157.603 42.1246 156.677 40.9223 156.836 39.4134C157.384 37.2088 158.28 35.1986 160.72 34.5084C163.238 34.0894 165.171 34.7138 166.132 37.0772C167.825 40.9906 170.254 44.4027 172.218 48.2394C175.337 54.0917 179.736 59.2895 182.118 65.6429C182.849 67.193 183.657 69.0141 185.125 70.0629C187.289 71.5006 187.36 73.8229 187.974 75.9919C188.699 79.5931 187.184 81.4855 183.429 81.6691C175.842 81.7652 168.291 83.0225 160.663 84.0086C156.984 84.4633 153.807 85.6547 150.205 86.3805C145.79 87.3364 141.156 83.3764 141.091 79.0029C140.943 76.4094 142.534 74.7882 144.975 74.098C148.229 73.1777 151.483 72.2575 155.279 71.1838C152.732 68.3905 150.22 66.7584 147.125 66.1697C143.063 65.2688 139.391 63.6723 135.718 62.0758C136.107 61.3802 135.759 61.1858 135.488 61.2625Z" fill="#FA7921"/>
<path id="Vector_2" d="M78.8444 38.0462C79.0333 39.7496 78.7211 40.7164 76.7107 39.8209C74.3525 38.731 71.3342 38.4134 70.1673 40.5002C69.1538 43.1293 72.1309 44.337 74.2946 45.7747C75.6859 46.5524 77.0772 47.3302 77.5373 48.9569C69.6381 50.0197 61.8978 49.5735 54.3109 49.6696C40.0271 49.9028 25.9679 53.0004 11.7553 55.5559C5.63639 56.7008 4.12732 56.5421 1.89253 52.7821C0.312288 50.3009 0.936841 48.3673 3.22395 47.1349C4.50307 46.4803 5.58766 46.1738 6.86679 45.5192C25.4647 38.7954 44.476 36.6395 64.1774 36.9238C69.1705 36.9757 74.1691 34.9764 78.8444 38.0462Z" fill="#FA7921"/>
<path id="Vector_3" d="M87.1346 49.7561C89.8874 48.0992 93.2124 49.5013 96.1952 48.6577C97.551 48.2743 98.759 45.2975 100.457 47.1597C102.656 49.7585 107.614 48.6493 108.493 52.7927C101.489 51.8454 93.9792 52.2125 87.1346 49.7561Z" fill="#FA7921"/>
<path id="Vector_4" d="M115.956 55.3667C118.591 54.3287 121.303 53.5619 124.398 54.1506C126.679 54.9694 129.155 55.4403 129.728 58.4993C125.047 57.4807 120.207 57.971 115.956 55.3667Z" fill="#FA7921"/>
<path id="Vector_5" d="M90.2221 38.9278C88.2473 39.1935 86.3846 40.8915 84.8043 38.4104C86.6258 37.6024 88.3296 37.4134 90.2221 38.9278Z" fill="#FA7921"/>
<path id="Vector_6" d="M79.5121 48.691C80.9446 48.5787 82.766 47.7708 83.5739 49.592C82.1003 50.5943 80.709 49.8166 79.5121 48.691Z" fill="#FA7921"/>
<path id="Vector_7" d="M129.533 58.8471C131.084 58.1158 132.398 58.6224 133.129 60.1724C131.502 60.6326 130.459 60.0493 129.533 58.8471Z" fill="#FA7921"/>
<path id="Vector_8" d="M109.46 53.1048C111.01 52.3735 112.248 52.6088 112.979 54.1589C111.7 54.8134 110.385 54.307 109.46 53.1048Z" fill="#FA7921"/>
<path id="Vector_9" d="M135.488 61.2623C135.836 61.4567 136.183 61.6511 136.26 61.9222C135.641 61.8045 135.564 61.5334 135.488 61.2623Z" fill="#FA7921"/>
</g>
</svg>
