<svg width="32" height="27" viewBox="0 0 32 27" fill="none" xmlns="http://www.w3.org/2000/svg">
<g id="envelope">
<g id="Vector">
<path d="M17.5987 19.6168L23.9485 22.2241C24.2408 22.3441 24.3884 22.6817 24.2789 22.9771C24.1688 23.2741 23.8428 23.4173 23.5506 23.2973L17.2007 20.69C16.9085 20.57 16.7608 20.2324 16.871 19.9354C16.9805 19.64 17.3064 19.4968 17.5987 19.6168Z" fill="#8021FA" style="mix-blend-mode:multiply"/>
</g>
<g id="Vector_2">
<path d="M24.347 21.1487L22.2302 20.2795C21.9379 20.1595 21.7896 19.8224 21.8994 19.5262C22.0092 19.23 22.3353 19.0877 22.6276 19.2077L24.7443 20.0769C25.0366 20.1969 25.1846 20.5338 25.0747 20.83C24.9649 21.1262 24.6392 21.2687 24.347 21.1487Z" fill="#8021FA" style="mix-blend-mode:multiply"/>
</g>
<g id="Vector_3">
<path d="M8.8947 14.4641L10.4787 13.2183L11.3829 18.3002L9.36614 17.4721L6.54381 16.3133L2.91357 14.8226L8.26263 10.4243L8.8947 14.4641ZM9.91144 16.4591L9.70534 15.3041L9.10143 15.7788L9.15935 16.1503L9.91144 16.4591ZM7.9405 15.6498L7.46059 12.5876L5.13599 14.4982L7.9405 15.6498Z" fill="#8021FA" style="mix-blend-mode:multiply"/>
</g>
<g id="Vector_4">
<path d="M6.49708 0.217125L30.8454 10.2149C31.1378 10.3349 31.286 10.6724 31.1761 10.9687L25.6063 25.9915C25.4967 26.2869 25.1703 26.43 24.878 26.31L0.529638 16.3122C0.238105 16.1925 0.0900179 15.8546 0.199576 15.5591L5.76944 0.53637C5.8793 0.24007 6.20555 0.0974178 6.49708 0.217125ZM7.66777 1.93434L15.7632 12.486C15.8277 12.5699 16.0316 12.6537 16.133 12.6378L28.8836 10.6459L7.66777 1.93434ZM24.7468 25.0191L29.6866 11.6959L16.3314 13.7824C16.0782 13.822 15.7962 13.7777 15.5368 13.6712C15.2775 13.5647 15.0411 13.3962 14.8807 13.1867L6.398 2.13014L1.45724 15.4561L24.7468 25.0191Z" fill="#8021FA" style="mix-blend-mode:multiply"/>
</g>
</g>
</svg>
