<svg width="55" height="62" viewBox="0 0 55 62" fill="none" xmlns="http://www.w3.org/2000/svg">
<path fillRule="evenodd" clip-rule="evenodd" d="M21.8266 13.1796C21.6653 12.1937 21.5438 11.2189 21.4653 10.244C21.347 8.78174 21.4201 7.30827 21.3782 5.84598C21.3599 5.22561 21.2878 3.60825 21.3168 3.37561C21.5803 1.34834 23.1689 1.03812 23.6335 0.982726C23.8583 0.949492 26.1664 0.68374 26.6644 3.3203C27.2753 6.54399 27.4711 9.7898 27.2549 12.9692C27.7593 15.6722 28.6219 18.3641 29.7609 20.8013C34.2932 30.4945 42.9298 31.4361 52.287 31.3475C53.726 31.3254 54.921 32.4885 54.9963 33.9619C55.0716 35.4463 54.0003 36.7314 52.5677 36.8643C47.3374 37.385 38.0576 41.7055 34.8492 46.2031C34.1781 47.1447 33.7877 49.4158 33.2714 51.6424C32.5508 54.7332 31.6936 57.7907 30.7332 59.0757C30.5891 59.2751 28.837 61.3135 28.3143 61.6126C27.058 62.3216 26.0524 61.9117 25.4813 61.535C24.9102 61.1584 24.2638 60.4161 24.0057 59.1865C23.7357 57.9014 23.9637 55.2648 23.9218 54.6998C23.7691 52.6504 23.3711 48.6291 22.5591 45.1728C22.1214 43.3117 21.6546 41.5946 20.8823 40.7416C18.0235 37.5844 13.4525 38.0497 9.60316 38.5704C9.16111 38.6258 8.71907 38.6923 8.2781 38.7477C6.71104 39.224 5.04714 39.5784 3.28863 39.7889C0.633127 40.1102 0.196487 37.5955 0.172826 37.4293C0.123351 37.0637 -0.0605856 35.1805 1.94099 34.4272C2.15933 34.3497 3.7705 33.9841 4.39109 33.8401C5.25582 33.6407 6.13021 33.4856 7.00785 33.3416C16.0736 30.4392 20.9974 22.2857 21.8266 13.1796ZM24.9382 23.2496C28.3605 30.5389 33.5543 34.0616 39.7107 35.6569H39.7096C35.8657 37.7284 32.3691 40.3208 30.5159 42.9241C29.8125 43.91 29.1672 45.8929 28.5853 48.1196C28.2702 46.048 27.8443 43.8434 27.2818 41.9602C26.6419 39.811 25.7803 38.0276 24.8188 36.9641C22.9624 34.9147 20.6328 33.7736 18.1278 33.2087C21.1264 30.4724 23.4002 27.0604 24.9382 23.2496Z" fill="#4DD78A"/>
</svg>
