<svg width="318" height="317" viewBox="0 0 318 317" fill="none" xmlns="http://www.w3.org/2000/svg">
<g clip-path="url(#clip0_316_1150)">
<path d="M132.538 98.4187C132.012 100.876 131.475 103.33 130.873 105.773C130.569 107.072 130.248 108.373 130.033 109.688C128.891 116.706 127.832 123.743 126.519 130.733C125.69 135.032 124.816 139.323 123.897 143.605L122.5 150.023L121.031 156.425C120.699 157.712 120.265 158.97 119.732 160.187C119.536 160.695 119.221 161.149 118.813 161.51C118.405 161.871 117.917 162.13 117.387 162.265C115.928 162.671 114.706 161.629 114.761 159.829C114.826 158.659 115.037 157.503 115.39 156.388C116.145 153.832 116.788 151.253 117.318 148.651C117.858 146.051 118.29 143.429 118.616 140.785C118.797 139.325 118.9 137.789 119.379 136.435C120.902 132.109 121.462 127.544 122.619 123.128C123.477 119.846 124.086 116.493 124.845 113.181L126.866 104.32C127.523 101.363 128.255 98.4195 128.921 95.4625C129.214 94.3183 129.582 93.1951 130.022 92.1001C130.465 91.0753 130.965 90.0761 131.519 89.1072C132.007 88.2491 132.639 88.427 132.767 89.5523C132.946 91.1669 133.012 92.7912 132.965 94.4133C132.946 95.0794 132.889 95.7472 132.803 96.4122C132.691 97.072 132.577 97.7343 132.465 98.3926L132.538 98.4187Z" fill="#FF7AC5"/>
<path d="M197.824 131.774L195.788 134.258L193.689 136.695C192.949 137.559 192.204 138.427 191.542 139.35C190.655 140.579 189.783 141.819 188.916 143.063L186.296 146.776L181.073 154.212L174.62 163.352L168.216 172.528C167.542 173.439 166.802 174.301 166.003 175.106C165.69 175.449 165.299 175.714 164.863 175.88C164.426 176.045 163.957 176.106 163.491 176.058C162.202 175.954 161.547 174.767 162.137 173.332C162.54 172.408 163.062 171.54 163.689 170.751C166.465 167.109 169.005 163.294 171.295 159.33C171.863 158.191 172.559 157.122 173.372 156.142C176.065 153.25 178.107 149.861 180.61 146.827C182.47 144.575 184.171 142.186 186.023 139.922C189.342 135.898 192.697 131.909 196.2 128.045C197.513 126.563 199.066 125.31 200.794 124.337C201.541 123.914 202.021 124.374 201.646 125.261C201.099 126.528 200.469 127.756 199.76 128.94C199.155 129.906 198.493 130.836 197.777 131.724L197.824 131.774Z" fill="#FF7AC5"/>
<path d="M231.341 191.936C229.561 192.482 227.777 193.021 225.991 193.552C225.03 193.793 224.084 194.091 223.16 194.444C220.719 195.437 218.3 196.484 215.883 197.532C213.464 198.575 211.041 199.603 208.603 200.591C205.603 201.813 202.591 203.004 199.582 204.202L190.534 207.745C189.594 208.072 188.616 208.282 187.623 208.372C186.671 208.494 185.79 207.938 185.016 207.055C183.888 205.769 183.724 203.969 184.791 203.093C185.49 202.555 186.294 202.169 187.152 201.959C190.995 200.873 194.692 199.339 198.168 197.389C199.134 196.851 200.108 196.208 201.19 196.043C204.636 195.502 207.69 193.896 211 193C213.455 192.325 215.838 191.423 218.279 190.702C220.456 190.059 222.638 189.433 224.823 188.824L231.423 187.131C233.143 186.68 234.948 186.645 236.69 187.03C236.868 187.058 237.034 187.139 237.167 187.262C237.3 187.384 237.393 187.543 237.435 187.718C237.476 187.893 237.465 188.076 237.401 188.244C237.338 188.412 237.225 188.556 237.079 188.659C236.117 189.406 235.112 190.095 234.067 190.722C233.182 191.166 232.264 191.545 231.321 191.854L231.341 191.936Z" fill="#FF7AC5"/>
<path d="M213.36 244.486C212.864 244.416 212.365 244.364 211.872 244.263L210.392 243.955C209.871 243.833 209.342 243.755 208.81 243.721C207.386 243.682 205.956 243.697 204.536 243.632C203.114 243.584 201.692 243.528 200.276 243.421C198.532 243.29 196.791 243.13 195.056 242.912L189.852 242.259C189.312 242.152 188.796 241.946 188.33 241.651C187.858 241.389 187.615 240.654 187.519 239.718C187.379 238.355 187.83 236.97 188.571 236.718C189.029 236.58 189.521 236.592 189.976 236.751C192.038 237.363 194.199 237.562 196.333 237.337C196.93 237.279 197.562 237.128 198.106 237.391C199.849 238.214 201.711 238.077 203.496 238.545C204.822 238.902 206.187 238.978 207.52 239.296C209.898 239.852 212.282 240.351 214.651 240.987C215.635 241.235 216.52 241.782 217.183 242.551C217.262 242.647 217.32 242.758 217.352 242.878C217.384 242.998 217.389 243.124 217.367 243.245C217.345 243.367 217.297 243.482 217.226 243.583C217.154 243.684 217.061 243.768 216.954 243.829C216.631 243.956 216.302 244.072 215.972 244.175C215.649 244.284 215.318 244.364 214.981 244.416C214.447 244.466 213.908 244.467 213.373 244.419L213.36 244.486Z" fill="#FF7AC5"/>
<path d="M65.9107 135.382C66.4612 136.448 66.9997 137.518 67.5261 138.591C67.7907 139.167 68.0898 139.726 68.4216 140.265C69.3657 141.663 70.2961 143.073 71.2009 144.503C72.0995 145.936 72.9427 147.401 73.7306 148.899C74.68 150.752 75.5746 152.634 76.3881 154.551C77.2023 156.467 77.9638 158.403 78.6725 160.361C78.864 160.977 78.9499 161.62 78.9268 162.263C78.937 162.886 78.4231 163.462 77.6615 163.961C76.5515 164.688 75.1299 164.795 74.5552 164.141C74.2139 163.718 73.9876 163.214 73.8982 162.68C73.3996 160.287 72.4292 158.013 71.0434 155.99C70.6656 155.424 70.1896 154.876 70.0816 154.214C69.7423 152.089 68.4885 150.359 67.7289 148.412C67.4417 147.689 67.1155 146.981 66.7517 146.293C66.403 145.596 66.0327 144.911 65.6916 144.21C64.4725 141.712 63.2253 139.213 61.8617 136.769C61.3207 135.723 61.1297 134.535 61.3166 133.378C61.3621 132.818 61.8557 132.504 62.5435 132.648L63.2026 132.86C63.3067 132.888 63.4044 132.936 63.4902 133.002L63.7407 133.171C64.0693 133.397 64.3841 133.643 64.6834 133.906C64.9217 134.12 65.1367 134.359 65.3247 134.618C65.4999 134.884 65.6641 135.157 65.8433 135.419L65.9107 135.382Z" fill="#FF7AC5"/>
</g>
<defs>
<clipPath id="clip0_316_1150">
<rect width="230" height="228" fill="white" transform="translate(124.143) rotate(32.9896)"/>
</clipPath>
</defs>
</svg>
