<svg width="43" height="47" viewBox="0 0 43 47" fill="none" xmlns="http://www.w3.org/2000/svg">
<g id="Highlight_05">
<path id="Vector" fill-rule="evenodd" clip-rule="evenodd" d="M14.3872 43.8602C10.2813 42.7107 5.98261 42.1308 1.81258 41.5996C0.914417 41.4882 0.0805359 42.1097 0.0163816 42.9853C-0.111927 43.8615 0.529992 44.6628 1.364 44.7742C5.40572 45.2855 9.57538 45.8328 13.4888 46.9394C14.3228 47.1794 15.2213 46.6853 15.478 45.8353C15.7346 44.986 15.2212 44.1008 14.3872 43.8602Z" fill="#FF7AC5"/>
<path id="Vector_2" fill-rule="evenodd" clip-rule="evenodd" d="M26.8326 27.563C20.2247 20.8356 12.7828 14.9741 6.30316 8.06623C5.72577 7.42107 4.6993 7.38651 4.05776 7.98878C3.41621 8.5917 3.35231 9.60551 3.99385 10.2507C10.4734 17.1784 17.9153 23.0591 24.5232 29.8063C25.1648 30.4361 26.191 30.4451 26.8326 29.8255C27.4099 29.2066 27.4741 28.1928 26.8326 27.563Z" fill="#FF7AC5"/>
<path id="Vector_3" fill-rule="evenodd" clip-rule="evenodd" d="M39.2152 1.68698C39.4077 5.53743 39.5998 9.38788 39.7923 13.239C39.7923 14.1209 40.5625 14.8019 41.4606 14.7591C42.3588 14.7155 43 13.9648 43 13.0822C42.8075 9.22532 42.6154 5.3691 42.423 1.51289C42.3588 0.630919 41.5888 -0.0455981 40.6907 0.0024045C39.8567 0.0504072 39.1511 0.805651 39.2152 1.68698Z" fill="#FF7AC5"/>
</g>
</svg>
