<svg width="65" height="170" viewBox="0 0 65 170" fill="none" xmlns="http://www.w3.org/2000/svg">
<g id="Ilustraci&#195;&#179;n" clip-path="url(#clip0_58_178)">
<g id="Group">
<path id="Vector" d="M44.0254 169.949L65 169.949L54.5127 159.461L44.0254 169.949Z" fill="#FA7921"/>
<path id="Vector_2" d="M44.0254 134.41L65 134.41L54.5127 123.923L44.0254 134.41Z" fill="#FA7921"/>
<path id="Vector_3" d="M44.0254 98.8564L65 98.8564L54.5127 88.3691L44.0254 98.8564Z" fill="#FA7921"/>
<path id="Vector_4" d="M44.0254 63.3178L65 63.3178L54.5127 52.8305L44.0254 63.3178Z" fill="#FA7921"/>
<path id="Vector_5" d="M44.0254 27.7791L65 27.7791L54.5127 17.2767L44.0254 27.7791Z" fill="#FA7921"/>
</g>
<g id="Group_2">
<path id="Vector_6" d="M0.000263214 152.672L20.9749 152.672L10.4876 142.185L0.000263214 152.672Z" fill="#FA7921"/>
<path id="Vector_7" d="M8.01086e-05 117.118L20.9747 117.118L10.4874 106.631L8.01086e-05 117.118Z" fill="#FA7921"/>
<path id="Vector_8" d="M8.01086e-05 81.5795L20.9747 81.5795L10.4874 71.0922L8.01086e-05 81.5795Z" fill="#FA7921"/>
<path id="Vector_9" d="M8.01086e-05 46.041L20.9747 46.041L10.4874 35.5537L8.01086e-05 46.041Z" fill="#FA7921"/>
<path id="Vector_10" d="M8.01086e-05 10.4872L20.9747 10.4872L10.4874 -7.82381e-05L8.01086e-05 10.4872Z" fill="#FA7921"/>
</g>
</g>
<defs>
<clipPath id="clip0_58_178">
<rect width="65" height="169.949" fill="white" transform="translate(65 169.949) rotate(180)"/>
</clipPath>
</defs>
</svg>
