<svg width="323" height="349" viewBox="0 0 323 349" fill="none" xmlns="http://www.w3.org/2000/svg">
<path d="M239 208.274C238.77 212.283 237.07 216.231 233.898 219.295C227.058 225.902 215.969 225.902 209.13 219.295C205.71 215.992 204 211.662 204 207.332C204 203.002 205.71 198.672 209.13 195.369C212.302 192.306 216.388 190.662 220.539 190.44L239 208.274ZM215.662 212.078L215.662 215.428L221.791 211.877L218.979 210.247L215.662 212.078ZM215.662 210.455L225.856 204.827L215.662 199.2L215.662 210.455ZM222.208 194.045C222.402 195.129 222.716 196.189 223.147 197.218C223.955 199.14 225.141 200.866 226.674 202.347C228.318 203.936 230.246 205.135 232.406 205.913C233.341 206.249 234.297 206.499 235.269 206.662L222.208 194.045ZM215.054 193.129C213.23 193.903 211.584 194.992 210.162 196.366C208.629 197.846 207.442 199.573 206.635 201.495C205.855 203.354 205.46 205.317 205.46 207.332C205.46 209.347 205.855 211.31 206.635 213.169C207.442 215.092 208.629 216.817 210.162 218.298C211.695 219.778 213.481 220.926 215.472 221.705C217.395 222.459 219.428 222.841 221.514 222.841C223.6 222.841 225.632 222.459 227.556 221.705C229.546 220.926 231.333 219.778 232.866 218.298C234.288 216.924 235.415 215.334 236.216 213.573C236.904 212.058 237.333 210.461 237.495 208.812L236.929 208.266C233.791 208.077 230.696 207.076 228.009 205.263L220.432 209.446L224.628 211.877L214.203 217.919L214.203 212.884L214.203 205.835L214.203 196.771L225.081 202.776C222.3 199.832 220.789 196.169 220.548 192.442L219.981 191.894C218.275 192.05 216.62 192.464 215.054 193.129Z" fill="#0B7077" style="mix-blend-mode:multiply"/>
<path d="M246 63.0946L236.015 71.3298L235.105 72.0802L225.12 80.3154L209.431 62.579L219.416 54.3438L220.326 53.5934L230.312 45.3582L246 63.0946ZM211.051 62.7069L225.243 78.7514L234.357 71.2346L220.165 55.1902L211.051 62.7069ZM235.267 70.4841L244.381 62.9674L230.189 46.9229L221.075 54.4397L235.267 70.4841L235.267 70.4841Z" fill="#FA7921"/>
<path d="M235.969 60.9744L238.24 60.6137L236.432 65.856L234.832 64.0471L232.592 61.5143L229.714 58.2607L237.491 56.8507L235.969 60.9744ZM235.983 63.6463L236.552 62.0056L235.525 62.1694L235.277 62.8476L235.983 63.6463ZM234.417 61.8752L235.738 58.2965L231.871 58.9968L234.417 61.8752Z" fill="#FA7921"/>
<path d="M229.211 59.4129L235.174 66.1561C235.378 66.387 235.35 66.7386 235.11 66.9369C234.873 67.1324 234.509 67.1039 234.305 66.873L228.342 60.1298C228.135 59.8965 228.166 59.5485 228.403 59.3529C228.644 59.1547 229.004 59.1796 229.211 59.4129Z" fill="#FA7921"/>
<path d="M225.143 74.4291C225.348 74.6604 225.323 75.0104 225.082 75.209C224.842 75.4076 224.48 75.3763 224.275 75.145C224.069 74.9112 224.093 74.5615 224.334 74.3628C224.575 74.1642 224.937 74.1953 225.143 74.4291Z" fill="#FA7921"/>
<path d="M223.655 72.745C223.859 72.9757 223.834 73.3257 223.593 73.5243C223.352 73.7229 222.991 73.6917 222.787 73.4609C222.58 73.2271 222.604 72.8774 222.845 72.6788C223.086 72.4801 223.448 72.5112 223.655 72.745Z" fill="#FA7921"/>
<path d="M222.163 71.0572C222.37 71.291 222.345 71.641 222.104 71.8396C221.863 72.0382 221.502 72.007 221.295 71.7731C221.091 71.5424 221.115 71.1927 221.356 70.9941C221.597 70.7954 221.959 70.8265 222.163 71.0572Z" fill="#FA7921"/>
<path d="M220.674 69.3741C220.881 69.6079 220.856 69.9579 220.615 70.1565C220.374 70.3551 220.013 70.3238 219.806 70.09C219.602 69.8599 219.627 69.5102 219.868 69.3116C220.108 69.1129 220.47 69.144 220.674 69.3741Z" fill="#FA7921"/>
<path d="M219.184 67.6888C219.391 67.9226 219.364 68.2701 219.123 68.4687C218.882 68.6673 218.523 68.6385 218.316 68.4047C218.109 68.1709 218.137 67.8249 218.378 67.6263C218.619 67.4277 218.977 67.455 219.184 67.6888Z" fill="#FA7921"/>
<path d="M222.566 69.7871L219.688 66.5336L227.462 65.1259L225.94 69.25L228.213 68.8866L226.406 74.1288L224.806 72.32L222.566 69.7872L222.566 69.7871ZM221.842 67.272L224.387 70.1504L225.708 66.5719L221.842 67.272ZM225.954 71.9215L226.522 70.2811L225.499 70.4422L225.248 71.1229L225.954 71.9215L225.954 71.9215Z" fill="#FA7921"/>
<path d="M227.569 50.7809C227.884 50.8056 228.122 51.074 228.098 51.3782L227.878 54.139L229.021 54.2289C229.336 54.2536 229.573 54.522 229.549 54.8262C229.526 55.1303 229.252 55.3557 228.934 55.3336L227.222 55.1993C226.905 55.172 226.67 54.9062 226.694 54.602L226.954 51.2883C226.978 50.9841 227.255 50.7561 227.569 50.7809Z" fill="#FA7921"/>
<path d="M217.268 63.4145C216.951 63.3873 216.713 63.1237 216.74 62.817L216.738 62.8146L216.827 61.712L215.683 61.6221C215.368 61.5973 215.131 61.3288 215.154 61.0245C215.178 60.7203 215.452 60.4946 215.77 60.517L216.911 60.6093L216.998 59.5042C217.022 59.1999 217.298 58.9718 217.613 58.9969C217.928 59.0216 218.166 59.2901 218.142 59.5944L218.055 60.6992L219.196 60.7869L219.199 60.7893C219.514 60.8141 219.749 61.0801 219.727 61.3869C219.703 61.6909 219.427 61.9189 219.112 61.8942L217.968 61.8042L217.884 62.907C217.857 63.2136 217.583 63.4393 217.268 63.4145Z" fill="#FA7921"/>
<path d="M119.053 82.864L120.782 82.2045L121.359 81.9845L121.935 81.7648C122.579 83.3081 124.397 84.0699 125.986 83.4637C127.575 82.8576 128.344 81.1094 127.699 79.5661L128.276 79.3461L128.852 79.1263L130.582 78.4667L140.521 79.866L140.786 86.902L136.86 87.1017L142.236 99.9744L126.096 106.131L120.72 93.258L117.729 95.6966L112.853 90.4195L119.053 82.864ZM117.843 94.0229L119.912 92.3351L121.225 91.2649L121.874 92.8181L126.781 104.571L140.616 99.2942L135.708 87.5414L135.059 85.9882L136.782 85.9005L139.499 85.7625L139.316 80.9097L130.743 79.7029L129.152 80.3097C129.332 82.1173 128.281 83.8861 126.454 84.5832C124.626 85.2805 122.589 84.6891 121.418 83.2598L119.827 83.8666L114.479 90.3835L117.843 94.0229Z" fill="#0B7077" style="mix-blend-mode:multiply"/>
<path d="M130.739 92.3051L131.083 90.1822L135.503 93.4446L133.305 94.2832L130.228 95.4574L126.271 96.967L127.293 89.6482L130.739 92.3051ZM132.997 93.1018L131.993 92.3601L131.861 93.1706L132.178 93.4143L132.997 93.1017L132.997 93.1018ZM130.849 93.9215L128.236 91.9068L127.792 95.0877L130.849 93.9215Z" fill="#0B7077" style="mix-blend-mode:multiply"/>
<g clip-path="url(#clip0_27_50)">
<path d="M226.95 322.792L236 331.222L242.859 324.834C244.225 323.561 246.442 323.561 247.808 324.834C248.492 325.471 248.834 326.305 248.834 327.139C248.834 327.973 248.492 328.808 247.808 329.445L240.95 335.834L250 344.264L245.05 348.875L236 340.445L228.117 347.788L223.166 347.788L223.166 343.177L231.05 335.834L222 327.403L226.95 322.792ZM236.825 331.991L238.059 333.141L243.268 328.289L242.034 327.139L236.825 331.991ZM246.984 328.676C247.424 328.266 247.667 327.72 247.667 327.139C247.667 326.559 247.424 326.013 246.984 325.602C246.074 324.755 244.593 324.755 243.684 325.602L242.859 326.371L246.159 329.445L246.984 328.676ZM245.334 330.213L244.093 329.057L238.884 333.909L240.125 335.065L245.334 330.213ZM248.35 344.264L246.725 342.75L245.9 343.519C245.672 343.73 245.303 343.73 245.075 343.519C244.847 343.306 244.847 342.962 245.075 342.75C245.075 342.75 245.075 342.75 245.076 342.749L245.9 341.982L244.25 340.445L243.425 341.213C243.197 341.425 242.827 341.425 242.6 341.213C242.372 341.001 242.372 340.656 242.6 340.445C242.6 340.445 242.6 340.445 242.6 340.445L243.425 339.676L241.775 338.139L240.951 338.907C240.951 338.907 240.95 338.908 240.95 338.908C240.722 339.119 240.353 339.119 240.125 338.908C239.897 338.695 239.897 338.351 240.125 338.139L240.125 338.139L240.95 337.371L239.3 335.834L238.475 336.602C238.247 336.814 237.878 336.814 237.65 336.602C237.422 336.39 237.422 336.046 237.65 335.834L238.475 335.065L236.825 333.528L236 334.297C235.772 334.509 235.403 334.509 235.175 334.297C234.947 334.085 234.947 333.74 235.175 333.528C235.176 333.528 235.176 333.528 235.176 333.528L236 332.76L234.35 331.222L233.526 331.991L233.525 331.991C233.297 332.203 232.928 332.203 232.7 331.991C232.472 331.779 232.472 331.435 232.7 331.222L233.525 330.454L231.875 328.917L231.05 329.685C230.822 329.898 230.453 329.898 230.225 329.685C229.998 329.474 229.997 329.13 230.225 328.917C230.225 328.917 230.225 328.917 230.226 328.917L231.05 328.149L229.4 326.612L228.576 327.38L228.575 327.38C228.348 327.593 227.978 327.593 227.75 327.38C227.523 327.168 227.523 326.824 227.75 326.612L228.575 325.843L226.95 324.329L223.65 327.403L245.05 347.338L248.35 344.264ZM224.333 346.702L225.3 346.702L224.333 345.801L224.333 346.702ZM224.333 343.628L224.333 344.264L226.95 346.702L227.633 346.702L235.175 339.676L233.934 338.52L228.113 343.942C227.885 344.155 227.515 344.155 227.288 343.942C227.06 343.73 227.06 343.387 227.288 343.174L233.109 337.751L231.875 336.602L224.333 343.628Z" fill="#FA7921"/>
</g>
<g clip-path="url(#clip1_27_50)">
<path d="M260.95 128.615L270 137.045L276.859 130.657C278.225 129.383 280.442 129.383 281.808 130.657C282.492 131.294 282.834 132.128 282.834 132.962C282.834 133.796 282.492 134.631 281.808 135.268L274.95 141.657L284 150.087L279.05 154.698L270 146.268L262.117 153.611L257.166 153.611L257.166 149L265.05 141.657L256 133.226L260.95 128.615ZM270.825 137.814L272.059 138.964L277.268 134.112L276.034 132.962L270.825 137.814ZM280.984 134.499C281.424 134.088 281.667 133.543 281.667 132.962C281.667 132.382 281.424 131.836 280.984 131.425C280.074 130.578 278.593 130.578 277.684 131.425L276.859 132.194L280.159 135.268L280.984 134.499ZM279.334 136.036L278.093 134.88L272.884 139.732L274.125 140.888L279.334 136.036ZM282.35 150.087L280.725 148.573L279.9 149.342C279.672 149.553 279.302 149.553 279.075 149.342C278.847 149.129 278.847 148.785 279.075 148.573C279.075 148.573 279.075 148.573 279.076 148.572L279.9 147.805L278.25 146.268L277.425 147.036C277.197 147.248 276.827 147.248 276.6 147.036C276.372 146.824 276.372 146.479 276.6 146.268C276.6 146.268 276.6 146.268 276.6 146.268L277.425 145.499L275.775 143.962L274.951 144.73C274.951 144.73 274.95 144.731 274.95 144.731C274.722 144.942 274.353 144.942 274.125 144.731C273.897 144.518 273.897 144.174 274.125 143.962L274.125 143.962L274.95 143.193L273.3 141.657L272.475 142.425C272.247 142.637 271.878 142.637 271.65 142.425C271.422 142.213 271.422 141.869 271.65 141.657L272.475 140.888L270.825 139.351L270 140.119C269.772 140.332 269.403 140.332 269.175 140.119C268.947 139.908 268.947 139.563 269.175 139.351C269.176 139.351 269.176 139.351 269.176 139.351L270 138.582L268.35 137.045L267.525 137.814L267.525 137.814C267.297 138.026 266.928 138.026 266.7 137.814C266.472 137.602 266.472 137.258 266.7 137.045L267.525 136.277L265.875 134.74L265.05 135.508C264.822 135.721 264.453 135.721 264.225 135.508C263.998 135.297 263.997 134.953 264.225 134.74C264.225 134.74 264.225 134.74 264.226 134.74L265.05 133.972L263.4 132.435L262.576 133.202L262.575 133.203C262.348 133.416 261.978 133.416 261.75 133.203C261.523 132.991 261.523 132.647 261.75 132.435L262.575 131.666L260.95 130.152L257.65 133.226L279.05 153.161L282.35 150.087ZM258.333 152.525L259.3 152.525L258.333 151.624L258.333 152.525ZM258.333 149.451L258.333 150.087L260.95 152.525L261.633 152.525L269.175 145.499L267.934 144.343L262.113 149.765C261.885 149.978 261.515 149.978 261.288 149.765C261.06 149.553 261.06 149.209 261.288 148.997L267.109 143.574L265.875 142.425L258.333 149.451Z" fill="#0B7077" style="mix-blend-mode:multiply"/>
</g>
<path d="M75.4119 133.611L70.5518 138.459C70.3282 138.682 69.9597 138.688 69.7296 138.472C69.4984 138.256 69.4923 137.9 69.716 137.677L74.5761 132.829C74.7998 132.606 75.1682 132.601 75.3995 132.817C75.6296 133.032 75.6356 133.388 75.4119 133.611Z" fill="#0B7077" style="mix-blend-mode:multiply"/>
<path d="M71.3895 139.242L73.0096 137.626C73.2333 137.403 73.6016 137.397 73.8322 137.613C74.0629 137.828 74.068 138.184 73.8443 138.407L72.2242 140.023C72.0005 140.246 71.6325 140.252 71.4019 140.037C71.1712 139.821 71.1658 139.465 71.3895 139.242Z" fill="#0B7077" style="mix-blend-mode:multiply"/>
<path d="M83.5296 127.577L84.0659 129.52L79.0298 128.388L80.5733 126.849L82.7335 124.694L85.5121 121.923L87.4996 128.557L83.5296 127.577ZM81.2967 127.744L82.4415 128L82.2373 127.26L81.8723 127.169L81.2967 127.744ZM82.8052 126.239L85.8148 126.981L84.9518 124.098L82.8052 126.239Z" fill="#0B7077" style="mix-blend-mode:multiply"/>
<path d="M97.5955 130.876L78.9595 149.463C78.7358 149.687 78.3672 149.693 78.1365 149.477L66.4365 138.531C66.2064 138.315 66.2007 137.959 66.4244 137.736L85.0604 119.148C85.2836 118.926 85.6524 118.92 85.8826 119.135L97.5825 130.081C97.8132 130.297 97.8186 130.653 97.5955 130.876ZM95.5591 131.291L82.6978 134.676C82.5954 134.703 82.4394 134.859 82.4147 134.959L79.3207 147.488L95.5591 131.291ZM67.6656 138.114L78.0419 147.822L81.2825 134.699C81.3439 134.45 81.4938 134.207 81.6923 134.009C81.8908 133.811 82.1376 133.658 82.3928 133.591L95.8696 130.045L85.4912 120.335L67.6656 138.114Z" fill="#0B7077" style="mix-blend-mode:multiply"/>
<path d="M283.273 172.086C290.302 172.086 296 177.564 296 184.322C296 186.551 295.38 188.64 294.297 190.44C295.38 192.24 296 194.33 296 196.558C296 203.316 290.302 208.794 283.273 208.794C278.524 208.794 274.383 206.294 272.196 202.588C265.889 201.861 261 196.7 261 190.44C261 184.18 265.889 179.019 272.196 178.292C274.383 174.586 278.524 172.086 283.273 172.086ZM271.374 200.908C270.839 199.556 270.546 198.09 270.546 196.558C270.546 194.33 271.166 192.24 272.249 190.44C271.166 188.64 270.546 186.551 270.546 184.322C270.546 182.79 270.839 181.325 271.374 179.972C270.698 180.112 270.036 180.313 269.393 180.574C268.067 181.113 266.876 181.886 265.853 182.869C264.83 183.853 264.026 184.998 263.465 186.273C262.885 187.592 262.591 188.994 262.591 190.44C262.591 191.886 262.885 193.288 263.465 194.607C264.026 195.882 264.83 197.027 265.853 198.011C266.876 198.994 268.067 199.767 269.393 200.306C270.036 200.567 270.698 200.768 271.374 200.908ZM273.202 179.745C273.136 179.881 273.072 180.017 273.011 180.155C272.43 181.474 272.136 182.876 272.136 184.322C272.136 185.769 272.43 187.17 273.011 188.489C273.088 188.664 273.17 188.837 273.257 189.008C275.51 186.249 278.97 184.444 282.873 184.329C282.497 183.81 282.073 183.322 281.602 182.869C280.579 181.886 279.387 181.113 278.062 180.574C276.69 180.016 275.232 179.734 273.727 179.734C273.551 179.734 273.377 179.737 273.202 179.745ZM283.798 185.864C283.624 185.856 283.449 185.851 283.273 185.851C281.769 185.851 280.31 186.134 278.939 186.692C277.613 187.232 276.421 188.004 275.398 188.987C274.929 189.439 274.506 189.924 274.132 190.44C274.506 190.957 274.929 191.442 275.398 191.893C276.421 192.877 277.613 193.649 278.939 194.189C280.31 194.746 281.769 195.029 283.273 195.029C283.449 195.029 283.624 195.024 283.798 195.016C283.864 194.882 283.928 194.745 283.989 194.607C284.57 193.288 284.864 191.886 284.864 190.44C284.864 188.994 284.57 187.592 283.989 186.273C283.928 186.135 283.864 185.998 283.798 185.864ZM286.455 190.44C286.455 191.971 286.161 193.438 285.626 194.789C286.302 194.649 286.964 194.449 287.607 194.188C288.933 193.648 290.124 192.877 291.148 191.893C291.617 191.441 292.04 190.956 292.414 190.44C292.04 189.924 291.617 189.438 291.148 188.987C290.124 188.003 288.933 187.232 287.607 186.692C286.964 186.431 286.302 186.23 285.626 186.091C286.161 187.442 286.455 188.909 286.455 190.44ZM282.873 196.551C278.97 196.436 275.51 194.631 273.257 191.872C273.17 192.043 273.088 192.216 273.011 192.391C272.43 193.71 272.136 195.111 272.136 196.558C272.136 198.004 272.43 199.406 273.011 200.725C273.072 200.863 273.136 200.999 273.202 201.135C273.377 201.143 273.551 201.146 273.727 201.146C275.232 201.146 276.69 200.864 278.061 200.306C279.387 199.767 280.579 198.994 281.602 198.011C282.073 197.558 282.497 197.07 282.873 196.551ZM293.289 191.872C291.256 194.362 288.24 196.074 284.804 196.469C282.679 200.071 278.707 202.533 274.127 202.67C274.503 203.188 274.927 203.676 275.398 204.128C276.421 205.113 277.613 205.885 278.939 206.424C280.31 206.982 281.769 207.265 283.273 207.265C284.777 207.265 286.236 206.982 287.607 206.424C288.933 205.885 290.124 205.113 291.148 204.128C292.171 203.145 292.974 202 293.535 200.725C294.115 199.407 294.41 198.004 294.41 196.558C294.41 195.111 294.115 193.71 293.535 192.392C293.458 192.216 293.375 192.043 293.289 191.872ZM287.607 174.456C286.235 173.898 284.777 173.615 283.273 173.615C281.769 173.615 280.31 173.898 278.939 174.456C277.613 174.995 276.421 175.767 275.398 176.752C274.927 177.204 274.503 177.692 274.127 178.21C278.707 178.347 282.679 180.809 284.804 184.411C288.24 184.806 291.256 186.518 293.289 189.008C293.375 188.837 293.458 188.664 293.535 188.489C294.115 187.17 294.41 185.769 294.41 184.322C294.41 182.876 294.115 181.474 293.535 180.155C292.974 178.88 292.171 177.735 291.147 176.752C290.124 175.767 288.933 174.995 287.607 174.456Z" fill="#0B7077" style="mix-blend-mode:multiply"/>
<path d="M255.197 278.294L250.104 271.158L247.921 268.099L242.827 260.962L267.174 243.316L281 262.687L255.197 278.294ZM255.545 276.624L257.694 275.323L253.238 269.079L251.149 270.465L255.545 276.624ZM250.421 269.445L254.6 266.674L253.872 265.655L249.693 268.425L250.421 269.445ZM248.966 267.406L251.055 266.021L246.599 259.777L244.57 261.247L248.966 267.406ZM266.888 245.072L247.613 259.041L252.1 265.328L254.19 263.943C254.478 263.751 254.874 263.824 255.075 264.105C255.276 264.387 255.206 264.77 254.917 264.962C255.206 264.77 255.602 264.844 255.803 265.126C256.004 265.407 255.933 265.79 255.645 265.981C255.933 265.79 256.33 265.863 256.531 266.145C256.732 266.426 256.661 266.81 256.373 267.001L254.283 268.386L258.77 274.672L279.196 262.318L266.888 245.072Z" fill="#FA7921"/>
<path d="M261.126 263.555L263.764 258.204L260.648 258.375L263.827 251.554L265.73 254.22L268.392 257.951L271.817 262.748L261.126 263.555ZM264.067 254.044L262.675 257.031L264.389 256.938L265.101 255.493L264.067 254.044L264.067 254.044ZM265.938 256.665L263.228 262.162L269.522 261.686L265.938 256.665Z" fill="#FA7921"/>
<g clip-path="url(#clip2_27_50)">
<path d="M144.364 25.9428C146.613 25.9428 148.437 27.7042 148.437 29.8773C148.437 30.1686 148.404 30.4514 148.342 30.7243L151.042 33.3318L158.367 26.2556C159.636 25.0299 161.693 25.0299 162.962 26.2556C163.597 26.868 163.914 27.6712 163.914 28.4745C163.914 29.2778 163.597 30.0811 162.962 30.6943L155.637 37.7713L163.98 45.831C164.403 46.2395 164.615 46.7753 164.615 47.3104C164.615 47.8461 164.403 48.3819 163.98 48.7905C163.134 49.6075 161.763 49.6075 160.917 48.7905L152.573 40.73L144.681 48.3543L140.086 48.3543L140.086 43.9148L147.978 36.2913L145.302 33.7067C145.001 33.7756 144.687 33.8124 144.364 33.8124C139.751 33.8124 139.386 27.2413 139.386 25.0682C139.386 22.8952 142.114 25.9428 144.364 25.9428ZM162.831 28.4745C162.831 27.9157 162.605 27.3907 162.196 26.9952C161.352 26.1796 159.978 26.1796 159.133 26.9952L158.367 27.7349L161.431 30.6943L162.196 29.9547C162.605 29.5591 162.831 29.0341 162.831 28.4745ZM161.683 48.0508C162.105 48.4585 162.792 48.4585 163.214 48.0508C163.419 47.853 163.531 47.5901 163.531 47.3103C163.531 47.0313 163.419 46.7684 163.214 46.5706L154.871 38.5109L153.339 39.9902L161.683 48.0508ZM141.169 47.3073L142.066 47.3073L141.169 46.4411L141.169 47.3073ZM141.169 44.3486L141.169 44.961L143.598 47.3073L144.232 47.3073L160.665 31.434L159.513 30.321L144.678 44.6514C144.467 44.856 144.123 44.856 143.912 44.6514C143.7 44.4475 143.7 44.1156 143.912 43.9117L158.747 29.5814L157.601 28.4746L141.169 44.3486ZM148.744 35.5516L150.275 34.0723L147.92 31.7966C147.561 32.4159 147.035 32.9317 146.399 33.2866L148.744 35.5516ZM141.171 29.921C141.489 30.8308 141.902 31.5321 142.4 32.0058C142.937 32.5171 143.579 32.7654 144.364 32.7654C145.162 32.7654 145.913 32.4657 146.478 31.92C147.042 31.3742 147.354 30.6491 147.354 29.8773C147.354 28.2844 146.012 26.9891 144.364 26.9891C143.131 26.9891 141.928 26.3544 140.962 25.8439C140.818 25.768 140.644 25.676 140.476 25.5917C140.506 26.7185 140.649 28.4247 141.171 29.921Z" fill="#0B7077" style="mix-blend-mode:multiply"/>
</g>
<g clip-path="url(#clip3_27_50)">
<path d="M182.553 112.497L168.983 66.2307L179.267 63.4149L192.838 109.682L182.553 112.497ZM171.182 67.4169L172.139 70.6797L173.853 70.2096C174.327 70.081 174.819 70.3465 174.954 70.8033C175.087 71.2606 174.812 71.7361 174.339 71.8664C174.338 71.8658 174.338 71.8658 174.338 71.8658L172.625 72.3348L173.596 75.6467L175.31 75.1778C175.784 75.048 176.276 75.3135 176.41 75.7715C176.544 76.2277 176.27 76.7049 175.796 76.8335L174.081 77.3024L175.053 80.6143L176.767 80.146L176.768 80.1455C177.24 80.0156 177.734 80.2818 177.867 80.7385C178.001 81.1965 177.727 81.6719 177.253 81.8011C177.253 81.8017 177.253 81.8017 177.253 81.8017L175.539 82.2706L176.511 85.5825L178.224 85.113C178.698 84.9838 179.19 85.2493 179.325 85.7067C179.458 86.1635 179.183 86.6395 178.711 86.7693L176.996 87.2382L177.967 90.5501L179.681 90.0806C180.155 89.9509 180.647 90.2169 180.781 90.6743C180.916 91.1317 180.641 91.6071 180.167 91.7369L178.452 92.2058L179.424 95.5172L181.139 95.0483C181.611 94.9185 182.105 95.1846 182.238 95.6414C182.373 96.0993 182.098 96.5748 181.624 96.704C181.624 96.7045 181.624 96.7045 181.624 96.7045L179.91 97.1735L180.882 100.485L182.595 100.016C183.069 99.8867 183.561 100.152 183.696 100.61C183.829 101.066 183.554 101.542 183.082 101.672C183.082 101.672 183.082 101.672 183.081 101.672L181.367 102.141L182.338 105.453L184.051 104.985C184.052 104.984 184.052 104.984 184.052 104.984C184.526 104.854 185.018 105.12 185.153 105.577C185.287 106.035 185.012 106.511 184.538 106.64L182.825 107.109L183.781 110.372L190.638 108.495L178.038 65.54L171.182 67.4169Z" fill="#0B7077" style="mix-blend-mode:multiply"/>
</g>
<path d="M267.271 75.2488L284.623 88.7673C284.831 88.9291 284.863 89.225 284.693 89.4275L274.88 101.165C274.711 101.367 274.404 101.4 274.196 101.238L267.936 96.3605L266.547 98.9129L266.698 99.0304C266.906 99.1923 266.938 99.4884 266.768 99.6909C266.599 99.8935 266.293 99.9259 266.085 99.764L260.049 95.0616C259.841 94.8997 259.809 94.6039 259.978 94.4013C260.148 94.1987 260.454 94.1661 260.662 94.3279L260.813 94.4459L263.105 92.5973L256.844 87.7192C256.636 87.5574 256.604 87.2616 256.774 87.059L266.587 75.322C266.756 75.1194 267.063 75.087 267.271 75.2488ZM265.778 98.3132L267.164 95.7642L263.873 93.1987L261.583 95.0451L265.778 98.3132L265.778 98.3132ZM267.035 76.2769L259.062 85.813L275.659 98.7426L283.632 89.2065L267.035 76.2769ZM266.133 93.7451L274.432 100.21L275.045 99.4762L266.747 93.0114L258.448 86.5467L257.835 87.2803L266.133 93.7451Z" fill="#0B7077" style="mix-blend-mode:multiply"/>
<path d="M266.076 93.0718C266.246 92.8693 266.551 92.8365 266.76 92.9987C266.968 93.1609 266.999 93.4563 266.83 93.6588C266.66 93.8613 266.355 93.8944 266.146 93.7322C265.938 93.5699 265.907 93.2743 266.076 93.0718Z" fill="#0B7077" style="mix-blend-mode:multiply"/>
<path d="M281.272 89.8317L269.926 80.9876C269.926 80.9876 269.926 80.9871 269.925 80.9867C269.717 80.8243 269.685 80.5275 269.855 80.3243C270.024 80.1211 270.332 80.0883 270.54 80.2507L281.887 89.0956C282.096 89.2588 282.128 89.556 281.958 89.7592C281.788 89.9624 281.481 89.9949 281.272 89.8317Z" fill="#0B7077" style="mix-blend-mode:multiply"/>
<path d="M280.05 91.2936L274.001 86.5787C274 86.5783 274 86.5783 274 86.5783C273.792 86.4155 273.76 86.1193 273.93 85.9161C274.1 85.713 274.406 85.68 274.615 85.8428L280.665 90.5581C280.874 90.7213 280.906 91.018 280.736 91.2212C280.567 91.4243 280.26 91.4568 280.05 91.2936Z" fill="#0B7077" style="mix-blend-mode:multiply"/>
<path d="M278.828 92.7573L270.509 86.2728C270.509 86.2724 270.509 86.2724 270.509 86.2724C270.3 86.1096 270.268 85.8132 270.438 85.61C270.608 85.4068 270.915 85.3736 271.124 85.5364L279.443 92.0214C279.653 92.1846 279.685 92.4814 279.515 92.6846C279.345 92.888 279.038 92.9206 278.828 92.7573Z" fill="#0B7077" style="mix-blend-mode:multiply"/>
<path d="M277.607 94.2182L272.315 90.0931C272.105 89.9299 272.073 89.6332 272.243 89.4301C272.413 89.2269 272.72 89.1944 272.929 89.3576L278.222 93.4825C278.432 93.6457 278.463 93.9427 278.294 94.1458C278.124 94.3489 277.817 94.3814 277.607 94.2182Z" fill="#0B7077" style="mix-blend-mode:multiply"/>
<path d="M276.386 95.68L266.553 88.0155L266.553 88.0158C266.343 87.8525 266.312 87.5555 266.481 87.3522C266.651 87.149 266.958 87.1165 267.168 87.2798L277 94.9443C277.21 95.1075 277.242 95.4043 277.072 95.6075C276.902 95.8107 276.595 95.8432 276.386 95.68Z" fill="#0B7077" style="mix-blend-mode:multiply"/>
<path d="M275.165 97.1427L272.142 94.7868C271.932 94.6237 271.9 94.3271 272.07 94.1241C272.24 93.921 272.547 93.8883 272.756 94.0514L275.779 96.4073C275.989 96.5704 276.02 96.8669 275.851 97.07C275.681 97.2733 275.374 97.3057 275.165 97.1427Z" fill="#0B7077" style="mix-blend-mode:multiply"/>
<path d="M142.883 161.752L146.832 165.406L133.877 169.678L135.187 164.114L137.021 156.324L139.378 146.309L153.218 158.58L142.883 161.752ZM136.463 166.892L143.258 164.651L140.812 162.387L137.267 163.475L136.463 166.892ZM137.755 161.405L149.513 157.797L140.488 149.794L137.755 161.405Z" fill="#FA7921"/>
<path d="M167.901 152.306L169.785 152.704C170.305 152.814 170.632 153.306 170.514 153.804C170.397 154.303 169.881 154.617 169.36 154.507L167.476 154.109L166.627 157.714L168.511 158.112C169.031 158.222 169.358 158.714 169.241 159.212C169.123 159.711 168.607 160.025 168.087 159.915L166.203 159.517L165.354 163.122L167.238 163.52C167.758 163.63 168.085 164.122 167.967 164.62C167.85 165.118 167.333 165.433 166.813 165.323L164.929 164.925L164.08 168.53L165.964 168.928C166.485 169.038 166.811 169.53 166.694 170.028C166.576 170.526 166.06 170.841 165.54 170.731L163.656 170.333L162.807 173.938L164.691 174.336C165.211 174.446 165.538 174.938 165.42 175.436C165.303 175.934 164.786 176.249 164.266 176.139L162.382 175.741L161.109 181.149L119.661 172.393L127.727 138.143L169.174 146.898L167.901 152.306ZM129.148 140.335L121.932 170.98L159.688 178.956L160.537 175.351L158.732 174.97C158.212 174.86 157.885 174.368 158.002 173.869C158.119 173.371 158.637 173.057 159.157 173.167L160.962 173.548L161.811 169.943L160.006 169.562C159.486 169.452 159.158 168.959 159.276 168.461C159.393 167.963 159.91 167.649 160.43 167.759L162.235 168.14L163.084 164.535L161.279 164.154C160.759 164.044 160.432 163.551 160.549 163.053C160.667 162.555 161.184 162.241 161.704 162.351L163.509 162.732L164.358 159.127L162.553 158.746C162.033 158.636 161.705 158.144 161.823 157.645C161.94 157.147 162.457 156.834 162.977 156.943L164.782 157.325L165.631 153.719L163.826 153.338C163.306 153.228 162.979 152.736 163.096 152.237C163.214 151.739 163.731 151.425 164.251 151.535L166.056 151.917L166.905 148.311L129.148 140.335Z" fill="#FA7921"/>
<path d="M241.565 141.873L221.515 163.879C221.275 164.143 220.859 164.17 220.586 163.939L204.804 150.529C204.532 150.297 204.507 149.895 204.747 149.631L211.981 141.691L208.5 139.749L208.326 139.941C208.085 140.205 207.669 140.232 207.396 140C207.124 139.769 207.099 139.367 207.339 139.103L214.313 131.448C214.554 131.184 214.969 131.158 215.242 131.389C215.514 131.621 215.54 132.022 215.3 132.286L215.125 132.478L217.562 135.566L224.796 127.625C225.037 127.361 225.452 127.335 225.725 127.566L241.507 140.976C241.779 141.208 241.805 141.609 241.565 141.873ZM209.389 138.774L212.865 140.713L216.671 136.538L214.237 133.453L209.389 138.774L209.389 138.774ZM235.21 137.323L232.595 140.193L237.527 144.384L240.142 141.513L235.21 137.323ZM231.609 139.355L234.224 136.485L227.319 130.618L224.704 133.488L231.609 139.355ZM236.655 145.34L223.833 134.445L208.142 151.667L220.965 162.562L236.655 145.34ZM215.758 139.466L206.169 149.99L207.156 150.828L216.744 140.304L226.333 129.78L225.346 128.941L215.758 139.466Z" fill="#0B7077" style="mix-blend-mode:multiply"/>
<path d="M216.676 139.397C216.948 139.629 216.974 140.03 216.733 140.295C216.492 140.559 216.077 140.586 215.804 140.354C215.532 140.123 215.506 139.721 215.746 139.457C215.988 139.192 216.404 139.166 216.676 139.397Z" fill="#0B7077" style="mix-blend-mode:multiply"/>
<path d="M220.452 145.874L223.44 142.595L226.043 149.979L221.506 149.088L222.217 151.252L216.468 150.247L218.128 148.425L220.452 145.874ZM224.056 148.29L222.924 145.081L220.616 147.614L224.056 148.29ZM218.994 149.395L220.3 149.624L220.029 148.798L219.612 148.716L218.994 149.395Z" fill="#0B7077" style="mix-blend-mode:multiply"/>
<path d="M222.509 157.061L221.638 158.018L220.651 157.179L221.523 156.223L222.509 157.061Z" fill="#0B7077" style="mix-blend-mode:multiply"/>
<path d="M227.292 151.81L226.421 152.766L225.434 151.928L226.306 150.971L227.292 151.81Z" fill="#0B7077" style="mix-blend-mode:multiply"/>
<path d="M232.076 146.558L231.204 147.515L230.217 146.677L231.089 145.719L232.076 146.558Z" fill="#0B7077" style="mix-blend-mode:multiply"/>
<path d="M228.122 143.196L227.25 144.153L226.264 143.315L227.136 142.358L228.122 143.196Z" fill="#0B7077" style="mix-blend-mode:multiply"/>
<path d="M224.168 139.834L223.296 140.792L222.309 139.953L223.181 138.996L224.168 139.834Z" fill="#0B7077" style="mix-blend-mode:multiply"/>
<path d="M214.601 150.338L213.729 151.295L212.742 150.456L213.614 149.5L214.601 150.338Z" fill="#0B7077" style="mix-blend-mode:multiply"/>
<path d="M218.555 153.7L217.683 154.656L216.697 153.818L217.568 152.862L218.555 153.7Z" fill="#0B7077" style="mix-blend-mode:multiply"/>
<path d="M219.384 145.087L218.512 146.043L217.525 145.205L218.397 144.248L219.384 145.087Z" fill="#0B7077" style="mix-blend-mode:multiply"/>
<path d="M36.1926 97.703L40.1057 97.703L40.1057 103.448L47.0001 103.448L47.0001 107.414L40.1057 107.414L40.1057 113.159L36.1926 113.159L36.1926 107.414L29.0001 107.414L29.0001 103.448L36.1926 103.448L36.1926 97.703Z" fill="#FA7921"/>
<path d="M4.00006 58.6068C5.50643 58.607 18.3496 62.5731 13.8305 47.1035C9.31136 31.6338 16.8432 26.8739 31.3591 23.7007C45.8751 20.5274 47.2445 11.272 46.9706 3.99998" stroke="#0B7077" stroke-width="8" stroke-linecap="round" stroke-linejoin="round" style="mix-blend-mode:multiply"/>
<path d="M251.221 16.3678C250.951 16.8791 247.212 20.5307 253.625 21.7575C260.039 22.9842 260.413 26.3903 258.961 31.8838C257.509 37.3774 260.616 39.4939 263.299 40.6988" stroke="#0B7077" stroke-width="8" stroke-linecap="round" stroke-linejoin="round" style="mix-blend-mode:multiply"/>
<path d="M309.377 270.164C304.794 270.164 301.377 273.709 301.377 277.722C301.377 281.735 304.794 285.28 309.377 285.28C313.96 285.28 317.377 281.735 317.377 277.722C317.377 273.709 313.96 270.164 309.377 270.164Z" stroke="#FA7921" stroke-width="10"/>
<path d="M201.5 8.99999C195.537 8.99999 191 13.6267 191 18.9732C191 24.3196 195.537 28.9463 201.5 28.9463C207.463 28.9463 212 24.3196 212 18.9732C212 13.6267 207.463 8.99999 201.5 8.99999Z" stroke="#0B7077" stroke-width="10" style="mix-blend-mode:multiply"/>
<defs>
<clipPath id="clip0_27_50">
<rect width="26.0823" height="28" fill="white" transform="matrix(1.23445e-08 -1 -1 -1.15196e-08 250 348.875)"/>
</clipPath>
<clipPath id="clip1_27_50">
<rect width="26.0823" height="28" fill="white" transform="matrix(1.27788e-08 -1 -1 -1.1128e-08 284 154.698)"/>
</clipPath>
<clipPath id="clip2_27_50">
<rect width="25.1163" height="26" fill="white" transform="matrix(1.27788e-08 -1 -1 -1.1128e-08 165 49.4025)"/>
</clipPath>
<clipPath id="clip3_27_50">
<rect width="42.4174" height="41.6552" fill="white" transform="matrix(0.880106 0.474776 0.500476 -0.865751 151.821 95.9182)"/>
</clipPath>
</defs>
</svg>
