<svg width="143" height="85" viewBox="0 0 143 85" fill="none" xmlns="http://www.w3.org/2000/svg">
<g id="Group 39">
<path id="Vector" d="M22.3438 0H0.477942C0.213982 0 0 0.213982 0 0.477941V56.8989C0 57.1629 0.213982 57.3768 0.477942 57.3768H22.3438C22.6077 57.3768 22.8217 57.1629 22.8217 56.8989V0.477941C22.8217 0.213982 22.6077 0 22.3438 0Z" fill="#20429C"/>
<path id="Vector_2" d="M54.1746 12.08C53.4099 17.2417 51.7251 24.2794 47.0293 26.6333C45.5238 27.39 42.9828 27.7883 39.4062 27.8281C34.9534 27.8759 30.5563 27.86 26.215 27.7803C26.0725 27.7776 25.9333 27.7375 25.8112 27.664C25.6891 27.5904 25.5886 27.4861 25.5196 27.3614C25.4506 27.2367 25.4156 27.0961 25.4181 26.9536C25.4206 26.8111 25.4606 26.6718 25.5339 26.5496C30.2895 18.6477 33.1093 10.0846 33.9935 0.860294C34.0493 0.29473 34.3599 0.0119485 34.9255 0.0119485L56.397 0C56.867 0 57.0343 0.227022 56.8988 0.681066C55.5208 5.37286 54.6127 9.17249 54.1746 12.08Z" fill="#20429C"/>
<path id="Vector_3" d="M61.4393 4.95861C58.9182 10.1204 55.8594 24.6856 49.9329 26.454C49.6541 26.5416 49.6143 26.4779 49.8134 26.2628C55.2141 20.4439 55.6084 13.0836 57.1856 5.68747C57.268 5.29143 57.482 4.93414 57.7937 4.67224C58.1054 4.41034 58.4969 4.25882 58.9062 4.24169L60.9136 4.15805C61.0096 4.15503 61.1049 4.17671 61.1901 4.22101C61.2754 4.26531 61.3479 4.33076 61.4007 4.41109C61.4534 4.49142 61.4847 4.58394 61.4914 4.6798C61.4982 4.77567 61.4803 4.87166 61.4393 4.95861Z" fill="#20429C"/>
<path id="Vector_4" d="M51.4862 35.9889C54.1866 42.7637 54.1507 49.7417 55.3456 56.8749C55.3578 56.94 55.3552 57.0069 55.3381 57.0711C55.321 57.1352 55.2897 57.195 55.2464 57.2462C55.2032 57.2974 55.149 57.3388 55.0877 57.3676C55.0264 57.3963 54.9594 57.4117 54.8915 57.4126L33.9816 57.4246C33.5833 57.4245 33.2009 57.2667 32.917 56.985C32.6331 56.7033 32.4704 56.3205 32.4641 55.919C32.3128 46.7027 29.8713 38.1795 25.1397 30.3492C25.0469 30.1958 24.9963 30.0205 24.9932 29.8412C24.99 29.6619 25.0344 29.485 25.1218 29.3284C25.2092 29.1719 25.3365 29.0412 25.4907 28.9498C25.645 28.8583 25.8207 28.8094 26 28.8078C31.2573 28.7521 36.6222 28.8477 42.0947 29.0946C46.6112 29.2937 49.7417 31.5918 51.4862 35.9889Z" fill="#20429C"/>
<path id="Vector_5" d="M76.853 34.3281C80.091 39.1792 74.0331 39.9559 70.9743 39.3585C70.6557 39.2947 70.4963 39.1036 70.4963 38.7849V29.5248C70.4963 29.1026 70.7074 28.8597 71.1296 28.796C73.6985 28.4375 77.7372 28.2344 77.773 31.8309C77.7801 32.2139 77.6343 32.5871 77.3667 32.8704L76.9366 33.3364C76.6498 33.6471 76.622 33.9776 76.853 34.3281ZM76.3277 31.189C76.3312 31.0337 76.3041 30.8792 76.2479 30.7344C76.1918 30.5896 76.1076 30.4572 76.0003 30.3449C75.893 30.2326 75.7646 30.1426 75.6224 30.0799C75.4803 30.0172 75.3272 29.9831 75.1719 29.9796L73.0457 29.9313C72.8904 29.9278 72.7359 29.9549 72.5911 30.0111C72.4462 30.0672 72.3139 30.1514 72.2016 30.2587C72.0893 30.366 71.9992 30.4944 71.9365 30.6366C71.8738 30.7787 71.8398 30.9318 71.8362 31.0871L71.8102 32.2338C71.8067 32.3891 71.8338 32.5436 71.89 32.6884C71.9461 32.8332 72.0303 32.9656 72.1376 33.0779C72.2449 33.1902 72.3733 33.2803 72.5155 33.3429C72.6576 33.4056 72.8107 33.4397 72.966 33.4432L75.0922 33.4915C75.2475 33.495 75.402 33.4679 75.5468 33.4117C75.6917 33.3556 75.824 33.2714 75.9363 33.1641C76.0486 33.0568 76.1387 32.9284 76.2014 32.7862C76.2641 32.6441 76.2981 32.491 76.3017 32.3357L76.3277 31.189ZM76.2981 35.8266C76.3063 35.6919 76.2879 35.5569 76.244 35.4293C76.2001 35.3017 76.1314 35.184 76.042 35.083C75.9526 34.9819 75.8441 34.8994 75.7229 34.8403C75.6016 34.7811 75.4698 34.7464 75.3351 34.7382L72.9737 34.5939C72.8391 34.5856 72.7041 34.604 72.5765 34.6479C72.4489 34.6919 72.3312 34.7605 72.2301 34.8499C72.1291 34.9393 72.0466 35.0478 71.9874 35.1691C71.9283 35.2904 71.8936 35.4221 71.8854 35.5568L71.792 37.0833C71.7838 37.218 71.8022 37.353 71.8461 37.4806C71.89 37.6082 71.9587 37.7259 72.0481 37.827C72.1375 37.928 72.246 38.0105 72.3672 38.0697C72.4885 38.1288 72.6203 38.1635 72.755 38.1717L75.1164 38.3161C75.251 38.3243 75.386 38.3059 75.5136 38.262C75.6412 38.2181 75.7589 38.1494 75.86 38.06C75.9611 37.9706 76.0435 37.8622 76.1027 37.7409C76.1618 37.6196 76.1965 37.4878 76.2048 37.3531L76.2981 35.8266Z" fill="#20429C"/>
<path id="Vector_6" d="M90.9044 34.0294C90.9044 34.7355 90.7653 35.4346 90.4951 36.087C90.2249 36.7393 89.8288 37.3321 89.3295 37.8314C88.8302 38.3307 88.2375 38.7267 87.5852 38.9969C86.9328 39.2671 86.2336 39.4062 85.5275 39.4062C84.8214 39.4062 84.1223 39.2671 83.4699 38.9969C82.8176 38.7267 82.2248 38.3307 81.7255 37.8314C81.2262 37.3321 80.8302 36.7393 80.56 36.087C80.2898 35.4346 80.1507 34.7355 80.1507 34.0294C80.1507 32.6033 80.7172 31.2357 81.7255 30.2274C82.7339 29.219 84.1015 28.6525 85.5275 28.6525C86.9536 28.6525 88.3212 29.219 89.3295 30.2274C90.3379 31.2357 90.9044 32.6033 90.9044 34.0294ZM89.59 34.0413C89.59 32.9512 89.157 31.9057 88.3862 31.1349C87.6153 30.3641 86.5699 29.931 85.4797 29.931C84.3896 29.931 83.3441 30.3641 82.5733 31.1349C81.8025 31.9057 81.3694 32.9512 81.3694 34.0413C81.3694 35.1314 81.8025 36.1769 82.5733 36.9477C83.3441 37.7186 84.3896 38.1516 85.4797 38.1516C86.5699 38.1516 87.6153 37.7186 88.3862 36.9477C89.157 36.1769 89.59 35.1314 89.59 34.0413Z" fill="#20429C"/>
<path id="Vector_7" d="M104 34.0413C104 34.7459 103.861 35.4435 103.592 36.0944C103.322 36.7453 102.927 37.3367 102.429 37.8349C101.93 38.3331 101.339 38.7282 100.688 38.9979C100.037 39.2675 99.3396 39.4062 98.635 39.4062C97.9305 39.4062 97.2329 39.2675 96.582 38.9979C95.9311 38.7282 95.3397 38.3331 94.8415 37.8349C94.3433 37.3367 93.9481 36.7453 93.6785 36.0944C93.4089 35.4435 93.2701 34.7459 93.2701 34.0413C93.2701 32.6185 93.8354 31.2539 94.8415 30.2478C95.8476 29.2417 97.2122 28.6765 98.635 28.6765C100.058 28.6765 101.422 29.2417 102.429 30.2478C103.435 31.2539 104 32.6185 104 34.0413ZM102.769 34.0413C102.769 33.4969 102.662 32.9577 102.454 32.4547C102.245 31.9517 101.94 31.4946 101.555 31.1096C101.17 30.7246 100.713 30.4192 100.21 30.2108C99.7067 30.0024 99.1676 29.8952 98.6231 29.8952C97.5235 29.8952 96.4689 30.332 95.6913 31.1096C94.9138 31.8871 94.4769 32.9417 94.4769 34.0413C94.4769 35.141 94.9138 36.1956 95.6913 36.9731C96.4689 37.7507 97.5235 38.1875 98.6231 38.1875C99.1676 38.1875 99.7067 38.0802 100.21 37.8719C100.713 37.6635 101.17 37.3581 101.555 36.9731C101.94 36.5881 102.245 36.131 102.454 35.628C102.662 35.125 102.769 34.5858 102.769 34.0413Z" fill="#20429C"/>
<path id="Vector_8" d="M108.373 33.2886C108.517 33.2886 108.656 33.2846 108.791 33.2766C109.07 33.2687 109.289 33.1452 109.449 32.9062L112.125 28.8079C112.164 28.7439 112.222 28.6929 112.292 28.661C112.362 28.6292 112.441 28.6179 112.519 28.6286L113.248 28.7481C113.471 28.78 113.523 28.8915 113.403 29.0827L110.608 33.3603C110.384 33.7028 110.381 34.0493 110.596 34.3998L113.403 38.8924C113.539 39.1075 113.503 39.2828 113.296 39.4182L112.914 39.6571C112.73 39.7687 112.579 39.7368 112.46 39.5616L110.381 36.5386C108.74 34.1489 107.879 34.4038 107.8 37.3033L107.752 38.8446C107.75 38.9095 107.736 38.9734 107.709 39.0325C107.682 39.0915 107.643 39.1445 107.595 39.1881C107.547 39.2317 107.491 39.265 107.429 39.2861C107.368 39.3072 107.303 39.3155 107.238 39.3106L106.82 39.2987C106.688 39.2925 106.563 39.2344 106.472 39.1365C106.38 39.0386 106.33 38.9083 106.33 38.773V29.2858C106.33 29.2141 106.344 29.1432 106.373 29.0775C106.401 29.0118 106.442 28.9529 106.494 28.9045C106.546 28.8561 106.607 28.8193 106.673 28.7965C106.74 28.7737 106.81 28.7653 106.88 28.772L107.346 28.8079C107.457 28.8139 107.562 28.8628 107.639 28.9448C107.717 29.0267 107.761 29.1357 107.764 29.25L107.812 32.7389C107.812 32.8111 107.826 32.8826 107.854 32.9493C107.883 33.016 107.924 33.0766 107.976 33.1276C108.028 33.1786 108.09 33.2191 108.158 33.2467C108.226 33.2744 108.299 33.2886 108.373 33.2886Z" fill="#20429C"/>
<path id="Vector_9" d="M117.681 30.3971C117.483 30.5117 117.32 30.6767 117.207 30.8752C117.094 31.0738 117.035 31.2988 117.038 31.5272C117.04 31.7557 117.103 31.9794 117.221 32.1755C117.338 32.3716 117.505 32.5331 117.705 32.6434L120.895 34.3879C121.32 34.619 121.665 34.975 121.883 35.4084C122.1 35.8418 122.181 36.3319 122.114 36.8135C121.756 39.4541 118.123 40.3622 116.391 38.546C116.192 38.3389 116.088 38.1278 116.08 37.9127C116.08 37.7534 116.112 37.618 116.176 37.5065C116.327 37.2675 116.518 37.2277 116.749 37.387C117.466 37.8888 118.251 38.1716 119.103 38.2353C119.485 38.2592 119.804 38.1238 120.059 37.8291C121.094 36.6502 121.078 35.7939 120.011 35.2602C118.944 34.7265 117.94 34.1689 117 33.5874C115.941 32.9262 115.618 32.0062 116.032 30.8273C116.821 28.5809 118.681 28.095 121.612 29.3695C121.69 29.4016 121.757 29.4529 121.809 29.5186C121.861 29.5844 121.895 29.6623 121.908 29.745C121.922 29.8277 121.913 29.9124 121.885 29.991C121.856 30.0696 121.807 30.1395 121.744 30.194C121.552 30.3692 121.385 30.4648 121.242 30.4807C120.987 30.5126 120.788 30.4887 120.644 30.4091C119.649 29.8355 118.661 29.8315 117.681 30.3971Z" fill="#20429C"/>
<path id="Vector_10" d="M129.797 28.7481H129.629C129.247 28.7481 128.936 29.0584 128.936 29.4411V38.7132C128.936 39.0959 129.247 39.4062 129.629 39.4062H129.797C130.179 39.4062 130.49 39.0959 130.49 38.7132V29.4411C130.49 29.0584 130.179 28.7481 129.797 28.7481Z" fill="#20429C"/>
<path id="Vector_11" d="M139.941 35.4991C140.594 36.3992 140.921 36.2957 140.921 35.1884L140.909 29.25C140.908 29.128 140.953 29.0101 141.035 28.9195C141.117 28.8289 141.23 28.772 141.351 28.7601L141.829 28.7123C141.901 28.7039 141.974 28.7112 142.044 28.7338C142.113 28.7564 142.177 28.7937 142.231 28.8434C142.285 28.8931 142.329 28.954 142.358 29.022C142.388 29.0901 142.403 29.1637 142.403 29.2381L142.415 38.9403C142.412 39.0669 142.373 39.1905 142.302 39.2956C142.231 39.4007 142.131 39.4826 142.015 39.5311C141.899 39.5796 141.772 39.5924 141.649 39.5681C141.527 39.5438 141.415 39.4833 141.327 39.3943C139.503 37.5144 137.994 35.4394 136.799 33.1691C135.715 31.106 135.186 31.2375 135.21 33.5634L135.245 38.6894C135.253 38.9443 135.134 39.1115 134.887 39.1912L134.397 39.3465C133.927 39.4979 133.692 39.3266 133.692 38.8327L133.704 30.1701C133.704 27.9795 134.345 27.7684 135.628 29.5368L139.941 35.4991Z" fill="#20429C"/>
<path id="Vector_12" d="M50.0165 30.9347C52.3465 31.7711 54.2105 34.2445 55.0827 36.4908C56.6042 40.3701 58.6752 45.6593 61.296 52.3585C61.5429 52.9798 61.3358 53.2506 60.6746 53.171L58.5836 52.9081C58.2499 52.8693 57.9364 52.7249 57.6877 52.4955C57.439 52.266 57.2675 51.9631 57.1976 51.6296C55.6085 43.7555 54.8796 37.6737 49.9449 31.0303C49.8652 30.9268 49.8891 30.8949 50.0165 30.9347Z" fill="#20429C"/>
<path id="Vector_13" d="M73.6029 51.9403C73.1011 51.9562 72.8462 52.2111 72.8382 52.705L72.8143 54.5928C72.8063 55.1903 73.0971 55.5049 73.6866 55.5368L78.4421 55.7877C78.5695 55.7957 78.6372 55.8634 78.6452 55.9908L78.6691 56.3493C78.7089 56.9148 78.45 57.2016 77.8924 57.2096L71.5239 57.3649C71.022 57.3729 70.7711 57.1219 70.7711 56.6121L70.795 44.8189C70.795 44.4525 70.9782 44.2454 71.3446 44.1976C73.5272 43.871 75.3275 43.867 76.7454 44.1857C79.2466 44.7512 79.2546 45.3526 76.7693 45.9899C76.1878 46.1412 75.2638 46.1054 73.9972 45.8824C73.2405 45.7469 72.8621 46.0656 72.8621 46.8382L72.8382 49.2877C72.8382 50.0126 73.1927 50.3232 73.9016 50.2197C74.6424 50.1161 75.5784 50.2157 76.7095 50.5184C77.0441 50.606 77.2671 50.7773 77.3787 51.0322C77.4155 51.1218 77.43 51.219 77.4209 51.3154C77.4118 51.4118 77.3794 51.5046 77.3265 51.5857C77.2736 51.6669 77.2018 51.7339 77.1172 51.7811C77.0326 51.8283 76.9378 51.8542 76.841 51.8566L73.6029 51.9403Z" fill="#20429C"/>
<path id="Vector_14" d="M89.4466 52.8364L89.6617 45.2968C89.6776 44.6675 89.9883 44.2613 90.5937 44.0781L90.8924 43.9825C90.9758 43.9585 91.0637 43.9541 91.1492 43.9698C91.2346 43.9855 91.3152 44.0208 91.3847 44.0729C91.4541 44.125 91.5106 44.1925 91.5496 44.2701C91.5885 44.3477 91.609 44.4333 91.6093 44.5202L91.6332 55.5367C91.6412 58.1017 90.8366 58.3884 89.2196 56.397C87.4193 54.1746 85.8421 51.7929 84.488 49.2518C83.6277 47.6268 83.1896 47.7343 83.1736 49.5744L83.1019 56.6121C83.1019 57.1139 82.851 57.3529 82.3492 57.329L82.0146 57.3171C81.465 57.2852 81.1902 56.9944 81.1902 56.4448L81.2141 46.5634C81.23 42.8354 82.2417 42.5407 84.249 45.6792L88.9328 52.9797C89.2594 53.4816 89.4307 53.4338 89.4466 52.8364Z" fill="#20429C"/>
<path id="Vector_15" d="M135.018 50.2316L140.491 50.1957C140.593 50.1958 140.692 50.1559 140.765 50.0845C140.839 50.0131 140.882 49.9159 140.885 49.8134L140.957 44.5919C140.957 44.4893 140.997 44.3908 141.068 44.3172C141.139 44.2436 141.237 44.2007 141.339 44.1976L142.546 44.1617C142.599 44.1601 142.651 44.1691 142.701 44.1882C142.75 44.2073 142.795 44.2361 142.833 44.2729C142.87 44.3097 142.9 44.3537 142.921 44.4023C142.942 44.4509 142.952 44.5032 142.952 44.556L143 56.9108C143 56.9626 142.99 57.0138 142.97 57.0617C142.95 57.1095 142.921 57.153 142.884 57.1896C142.848 57.2262 142.804 57.2553 142.757 57.2751C142.709 57.2949 142.657 57.3051 142.606 57.3051L141.411 57.317C141.358 57.3186 141.305 57.3096 141.256 57.2905C141.207 57.2714 141.162 57.2426 141.124 57.2059C141.086 57.1691 141.056 57.1251 141.036 57.0764C141.015 57.0278 141.005 56.9755 141.005 56.9227L140.921 52.3106C140.918 52.2081 140.875 52.1109 140.801 52.0395C140.728 51.9681 140.629 51.9282 140.527 51.9283L135.018 51.8685C134.914 51.8685 134.813 51.9101 134.74 51.984C134.666 52.058 134.624 52.1582 134.624 52.2628L134.576 56.9825C134.575 57.0353 134.563 57.0873 134.541 57.1354C134.519 57.1835 134.487 57.2266 134.448 57.2623C134.409 57.2979 134.363 57.3254 134.314 57.343C134.264 57.3606 134.211 57.3681 134.158 57.3648L132.999 57.2812C132.899 57.2751 132.804 57.2309 132.736 57.1576C132.667 57.0843 132.628 56.9875 132.629 56.8869L132.617 44.329C132.618 44.2728 132.631 44.2175 132.655 44.1667C132.679 44.116 132.714 44.071 132.757 44.0348C132.8 43.9986 132.85 43.972 132.904 43.9568C132.958 43.9416 133.015 43.9381 133.071 43.9466L134.313 44.1259C134.407 44.1403 134.493 44.1881 134.554 44.2605C134.616 44.333 134.649 44.4252 134.648 44.5202L134.624 49.8373C134.624 49.9418 134.666 50.0421 134.74 50.1161C134.813 50.19 134.914 50.2316 135.018 50.2316Z" fill="#20429C"/>
<path id="Vector_16" d="M103.319 52.5138C102.825 52.4262 102.363 52.239 101.933 51.9522C101.857 51.8994 101.798 51.8268 101.761 51.7424C101.724 51.658 101.711 51.565 101.723 51.4737C101.735 51.3823 101.773 51.2962 101.831 51.2246C101.889 51.1531 101.966 51.0989 102.052 51.068C103.016 50.7335 104.008 50.6538 105.028 50.829C105.222 50.8628 105.398 50.964 105.524 51.1149C105.651 51.2657 105.721 51.4565 105.721 51.6535L105.697 56.7436C105.697 57.1578 105.49 57.341 105.075 57.2932C104.637 57.2454 104.239 57.0821 103.88 56.8033C103.728 56.6831 103.547 56.6045 103.354 56.5752C103.162 56.5459 102.964 56.5668 102.781 56.636C90.5937 61.1884 90.4145 39.8842 104.131 45.0937C104.298 45.1604 104.445 45.2647 104.562 45.3977C104.678 45.5308 104.76 45.6888 104.801 45.8585L104.992 46.659C105.001 46.7034 104.998 46.7495 104.984 46.7925C104.97 46.8356 104.945 46.8738 104.912 46.9033C104.878 46.9327 104.838 46.9522 104.796 46.9597C104.753 46.9672 104.709 46.9624 104.669 46.9458C91.4062 42.2022 93.9871 59.1811 102.984 54.9393C103.446 54.7163 103.741 54.4295 103.869 54.079C103.964 53.8162 103.988 53.5135 103.94 53.171C103.9 52.8045 103.693 52.5855 103.319 52.5138Z" fill="#20429C"/>
<path id="Vector_17" d="M110.201 55.6682L115.148 55.6323C115.193 55.6323 115.237 55.6413 115.279 55.6589C115.32 55.6765 115.358 55.7022 115.389 55.7345C115.42 55.7669 115.445 55.8052 115.461 55.8472C115.477 55.8891 115.484 55.9339 115.483 55.9789L115.471 56.7914C115.468 56.876 115.433 56.9563 115.373 57.0162C115.313 57.076 115.233 57.111 115.148 57.114L108.266 57.341C108.221 57.3426 108.176 57.3351 108.134 57.319C108.092 57.3029 108.054 57.2786 108.021 57.2473C107.989 57.2161 107.963 57.1787 107.946 57.1373C107.928 57.0959 107.919 57.0514 107.919 57.0064L107.847 44.5083C107.847 44.4195 107.883 44.3344 107.945 44.2717C108.008 44.209 108.093 44.1737 108.182 44.1737L109.58 44.1976C109.669 44.1976 109.754 44.2328 109.817 44.2956C109.879 44.3583 109.915 44.4434 109.915 44.5322L109.867 55.3336C109.867 55.4224 109.902 55.5075 109.965 55.5702C110.027 55.6329 110.113 55.6682 110.201 55.6682Z" fill="#20429C"/>
<path id="Vector_18" d="M118.769 44.1373L118.076 44.1385C117.693 44.1392 117.383 44.45 117.384 44.8327L117.405 56.614C117.405 56.9967 117.716 57.3064 118.099 57.3058L118.792 57.3046C119.175 57.3039 119.484 56.9931 119.484 56.6103L119.463 44.8291C119.462 44.4464 119.152 44.1366 118.769 44.1373Z" fill="#20429C"/>
<path id="Vector_19" d="M124.336 47.4954C124.257 47.7847 124.281 48.0929 124.406 48.3659C124.53 48.639 124.747 48.8595 125.017 48.989C126.989 49.9448 131.374 51.9403 130.084 54.7482C128.745 57.6516 125.125 57.8189 122.664 56.3015C122.321 56.0864 122.134 55.8394 122.102 55.5607C122.078 55.3934 122.102 55.242 122.174 55.1066C122.357 54.7561 122.64 54.6207 123.022 54.7004C123.938 54.8995 124.838 55.1146 125.722 55.3456C126.575 55.5686 127.244 55.4372 127.73 54.9513C127.922 54.7583 128.062 54.5204 128.138 54.2589C128.215 53.9975 128.224 53.7208 128.166 53.4539C128.108 53.187 127.984 52.9383 127.806 52.7303C127.627 52.5224 127.4 52.3617 127.144 52.2629C117.466 48.4991 124.551 41.6287 128.913 44.9026C130.299 45.954 130.123 46.5276 128.387 46.6232C128.076 46.6391 127.479 46.5594 126.595 46.3842C125.352 46.1452 124.599 46.5156 124.336 47.4954Z" fill="#20429C"/>
<path id="Vector_20" d="M8.14886 71.4402C8.41335 71.3237 8.63476 71.1273 8.78214 70.8787L12.4145 64.5937C12.9163 63.7255 13.6731 63.2874 14.6847 63.2794L18.1378 63.2555C19.1256 63.2475 19.3526 63.6578 18.8189 64.4862L13.3823 72.8621C13.2324 73.0907 13.1515 73.3577 13.1494 73.631C13.1472 73.9044 13.224 74.1726 13.3704 74.4035L19.4402 84.0101C19.7748 84.5358 19.6274 84.8027 18.9981 84.8106L14.6011 84.8584C14.2863 84.8617 13.9757 84.7858 13.698 84.6375C13.4203 84.4893 13.1843 84.2735 13.0119 84.0101C11.6856 82.0266 9.9292 77.2711 7.67092 75.9209C7.46471 75.7973 7.2292 75.7304 6.98875 75.7273C6.74831 75.7241 6.51167 75.7847 6.30332 75.9029C6.09497 76.0211 5.92248 76.1925 5.8037 76.3995C5.68492 76.6064 5.62417 76.8413 5.62772 77.0799L5.69942 84.1893C5.70738 84.6115 5.50027 84.8306 5.07809 84.8465L0.669085 84.954C0.238938 84.97 0.0238647 84.7629 0.0238647 84.3327L0.0358135 64.4265C0.037236 64.2513 0.0739808 64.0782 0.143851 63.9176C0.213721 63.7569 0.315279 63.612 0.442448 63.4916C0.569617 63.3711 0.719784 63.2775 0.883962 63.2164C1.04814 63.1553 1.22296 63.128 1.39795 63.136L4.56431 63.2794C5.40867 63.3113 5.82288 63.7534 5.80695 64.6057C5.78305 66.0714 5.71933 67.8278 5.61578 69.875C5.52815 71.6593 6.37252 72.1811 8.14886 71.4402Z" fill="#20429C"/>
<path id="Vector_21" d="M30.7077 80.3419L38.7968 80.1507C38.9129 80.1475 39.0286 80.1672 39.137 80.2088C39.2455 80.2503 39.3448 80.3128 39.4291 80.3927C39.5135 80.4726 39.5812 80.5683 39.6285 80.6744C39.6759 80.7805 39.7018 80.8949 39.7049 81.011L39.7527 83.9623C39.7543 84.0794 39.7326 84.1957 39.6889 84.3043C39.6451 84.413 39.5802 84.5119 39.498 84.5952C39.4157 84.6786 39.3177 84.7448 39.2097 84.79C39.1016 84.8352 38.9856 84.8584 38.8685 84.8584H25.0441C24.8096 84.8584 24.5847 84.7653 24.4188 84.5994C24.253 84.4336 24.1599 84.2087 24.1599 83.9742L24.124 64.056C24.124 63.9389 24.1473 63.8229 24.1925 63.7149C24.2376 63.6068 24.3038 63.5088 24.3872 63.4265C24.4706 63.3443 24.5695 63.2794 24.6781 63.2357C24.7868 63.192 24.903 63.1703 25.0202 63.1718L38.4981 63.2555C38.6184 63.2568 38.7372 63.2827 38.8471 63.3316C38.9571 63.3804 39.0559 63.4512 39.1376 63.5395C39.2192 63.6279 39.282 63.732 39.322 63.8455C39.362 63.9589 39.3785 64.0794 39.3703 64.1994L39.1792 67.1268C39.1638 67.355 39.0606 67.5683 38.8913 67.7221C38.722 67.8758 38.4997 67.9579 38.2711 67.9512L30.7077 67.7481C30.5896 67.7449 30.472 67.7654 30.362 67.8084C30.2519 67.8514 30.1516 67.9161 30.0669 67.9985C29.9823 68.0809 29.915 68.1795 29.8691 68.2883C29.8232 68.3972 29.7995 68.5142 29.7996 68.6323L29.8235 70.6636C29.8235 70.896 29.915 71.1191 30.0782 71.2846C30.2414 71.4501 30.4633 71.5446 30.6957 71.5478L36.7058 71.6075C36.8251 71.6089 36.9428 71.6345 37.0519 71.6826C37.161 71.7307 37.2593 71.8004 37.3407 71.8874C37.4222 71.9745 37.4853 72.0771 37.526 72.1892C37.5668 72.3013 37.5845 72.4204 37.5781 72.5395L37.4466 75.3115C37.4343 75.5419 37.3324 75.7582 37.1627 75.9145C36.9931 76.0707 36.7691 76.1545 36.5385 76.1479L30.6957 76.0165C30.5776 76.0133 30.4601 76.0338 30.35 76.0768C30.24 76.1198 30.1396 76.1844 30.055 76.2669C29.9703 76.3493 29.9031 76.4478 29.8571 76.5567C29.8112 76.6656 29.7876 76.7825 29.7876 76.9007L29.7996 79.4577C29.7995 79.5758 29.8232 79.6928 29.8691 79.8017C29.915 79.9105 29.9823 80.0091 30.0669 80.0915C30.1516 80.1739 30.2519 80.2385 30.362 80.2815C30.472 80.3246 30.5896 80.3451 30.7077 80.3419Z" fill="#20429C"/>
<path id="Vector_22" d="M62.0248 81.1903L62.0845 83.9146C62.0877 84.0311 62.0675 84.1471 62.0251 84.2557C61.9827 84.3643 61.9189 84.4633 61.8376 84.5469C61.7563 84.6304 61.6591 84.6968 61.5517 84.7421C61.4443 84.7874 61.3288 84.8108 61.2123 84.8107L47.1249 84.9063C47.0094 84.9079 46.8947 84.8865 46.7875 84.8434C46.6803 84.8003 46.5827 84.7363 46.5004 84.6551C46.4182 84.574 46.3529 84.4773 46.3083 84.3707C46.2637 84.264 46.2407 84.1496 46.2408 84.0341L46.2527 64.1039C46.2527 63.8726 46.3446 63.6507 46.5082 63.4872C46.6718 63.3236 46.8936 63.2317 47.1249 63.2317L51.295 63.2556C51.5242 63.2587 51.743 63.352 51.904 63.5152C52.065 63.6785 52.1553 63.8986 52.1553 64.1278L52.0477 79.41C52.0477 79.6393 52.138 79.8593 52.299 80.0226C52.46 80.1858 52.6788 80.2791 52.908 80.2822L61.1645 80.342C61.3896 80.345 61.6049 80.435 61.7653 80.5931C61.9256 80.7512 62.0186 80.9652 62.0248 81.1903Z" fill="#20429C"/>
<path id="Vector_23" d="M61.272 64.0561C61.4208 64.085 61.552 64.1716 61.637 64.297C61.7221 64.4224 61.7541 64.5763 61.7261 64.7252L61.6424 65.1195C61.5869 65.3932 61.4945 65.6568 61.3708 65.895C61.247 66.1332 61.0942 66.3415 60.9211 66.5079C60.748 66.6744 60.558 66.7957 60.362 66.865C60.1659 66.9343 59.9676 66.9502 59.7785 66.9118L59.5395 66.864C59.3504 66.8254 59.1741 66.7334 59.0207 66.593C58.8673 66.4526 58.7398 66.2667 58.6455 66.046C58.5512 65.8252 58.4919 65.5738 58.4711 65.3062C58.4502 65.0385 58.4681 64.7599 58.5239 64.4862L58.6075 64.0919C58.6231 64.0181 58.6531 63.9482 58.6958 63.886C58.7385 63.8238 58.7931 63.7707 58.8564 63.7296C58.9196 63.6885 58.9904 63.6604 59.0645 63.6467C59.1387 63.633 59.2148 63.6341 59.2886 63.6498L61.272 64.0561Z" fill="#20429C"/>
</g>
</svg>
