<svg width="36" height="27" viewBox="0 0 36 27" fill="none" xmlns="http://www.w3.org/2000/svg">
<g id="&#240;&#159;&#166;&#134; icon &#34;Envelope icon&#34;">
<path id="Vector" d="M35.0026 8.91563C35.2744 8.69766 35.6786 8.90156 35.6786 9.24609V23.625C35.6786 25.4883 34.1803 27 32.3337 27H3.34487C1.49822 27 0 25.4883 0 23.625V9.25313C0 8.90156 0.397203 8.70469 0.675942 8.92266C2.23688 10.1461 4.30652 11.7 11.4144 16.9102C12.8847 17.993 15.3655 20.2711 17.8393 20.257C20.327 20.2781 22.8566 17.9508 24.2712 16.9102C31.379 11.7 33.4417 10.1391 35.0026 8.91563ZM17.8393 18C19.456 18.0281 21.7834 15.9469 22.9541 15.0891C32.2013 8.31797 32.9051 7.72734 35.0375 6.03984C35.4416 5.72344 35.6786 5.23125 35.6786 4.71094V3.375C35.6786 1.51172 34.1803 0 32.3337 0H3.34487C1.49822 0 0 1.51172 0 3.375V4.71094C0 5.23125 0.236928 5.71641 0.641099 6.03984C2.77345 7.72031 3.47727 8.31797 12.7244 15.0891C13.8951 15.9469 16.2226 18.0281 17.8393 18Z" fill="#A4A4A4"/>
</g>
</svg>
