<svg width="28" height="27" viewBox="0 0 28 27" fill="none" xmlns="http://www.w3.org/2000/svg">
<g id="pencil ruler" clip-path="url(#clip0_395_1238)">
<path id="pencil ruler_2" d="M4.94966 -1.55243e-05L14 8.43007L20.8586 2.04164C22.2253 0.768087 24.4415 0.768087 25.8082 2.04164C26.4918 2.67841 26.8336 3.51259 26.8336 4.34676C26.8336 5.18094 26.4918 6.01593 25.8082 6.6527L18.9497 13.0411L28 21.4712L23.0503 26.0823L14 17.6522L6.11647 24.9958L1.16637 24.9958L1.16637 20.3847L9.05034 13.0411L2.65051e-07 4.61105L4.94966 -1.55243e-05ZM14.825 9.19898L16.0589 10.3483L21.2674 5.49611L20.0336 4.34676L14.825 9.19898ZM24.9837 5.88378C25.4242 5.47309 25.6668 4.9278 25.6668 4.34676C25.6668 3.76648 25.4241 3.22049 24.9837 2.80974C24.0736 1.96283 22.5932 1.96283 21.6836 2.80974L20.8586 3.57866L24.1586 6.6527L24.9837 5.88378ZM23.3336 7.4208L22.0925 6.26503L16.8839 11.1164L18.1247 12.273L23.3336 7.4208ZM26.35 21.4712L24.7247 19.9573L23.8997 20.7262C23.672 20.9379 23.3024 20.9379 23.0747 20.7262C22.847 20.5137 22.847 20.1698 23.0747 19.9573C23.0747 19.9573 23.0751 19.9573 23.0756 19.9565L23.8997 19.1892L22.2497 17.6521L21.4246 18.4202C21.1969 18.6328 20.8274 18.6328 20.5996 18.4202C20.3719 18.2085 20.3719 17.8639 20.5996 17.6521C20.6001 17.6521 20.6001 17.6521 20.6001 17.6521L21.4246 16.8832L19.7746 15.3462L18.9505 16.1143C18.9505 16.1143 18.95 16.1151 18.9496 16.1151C18.7219 16.3268 18.3527 16.3268 18.125 16.1151C17.8969 15.9026 17.8969 15.5587 18.125 15.3462L18.1246 15.3462L18.9496 14.5781L17.3001 13.0411L16.475 13.8092C16.2469 14.0218 15.8777 14.0218 15.65 13.8092C15.4223 13.5975 15.4223 13.2537 15.65 13.0411L16.475 12.273L14.825 10.736L14 11.5041C13.7723 11.7166 13.4027 11.7166 13.175 11.5041C12.9473 11.2924 12.9473 10.9477 13.175 10.736C13.1754 10.7352 13.1754 10.7352 13.1754 10.7352L14 9.96709L12.35 8.43007L11.5254 9.19898L11.525 9.19898C11.2972 9.4107 10.9281 9.4107 10.6999 9.19898C10.4722 8.98645 10.4722 8.6426 10.6999 8.43007L11.525 7.66196L9.87492 6.12494L9.05034 6.89305C8.82219 7.10558 8.45305 7.10558 8.22533 6.89305C7.99761 6.68133 7.99717 6.33747 8.22533 6.12494C8.22533 6.12494 8.22533 6.12494 8.22577 6.12494L9.05034 5.35684L7.40031 3.81982L6.57574 4.5871L6.5753 4.58792C6.34758 4.80045 5.978 4.80045 5.75028 4.58792C5.52256 4.37539 5.52256 4.03153 5.75028 3.81982L6.5753 3.0509L4.9496 1.53695L1.64998 4.611L23.0503 24.5453L26.35 21.4712ZM2.33319 23.9093L3.29963 23.9093L2.33319 23.0082L2.33319 23.9093ZM2.33319 20.8353L2.33319 21.472L4.94966 23.9093L5.63281 23.9093L13.175 16.8833L11.9339 15.7275L6.11259 21.1497C5.88487 21.3622 5.51529 21.3622 5.28757 21.1497C5.05985 20.938 5.05985 20.5941 5.28757 20.3816L11.1088 14.9586L9.87531 13.8093L2.33319 20.8353Z" fill="#FFCB3C"/>
</g>
<defs>
<clipPath id="clip0_395_1238">
<rect width="26.0823" height="28" fill="white" transform="matrix(1.23445e-08 -1 -1 -1.15196e-08 28 26.0823)"/>
</clipPath>
</defs>
</svg>
