<svg width="63" height="130" viewBox="0 0 63 130" fill="none" xmlns="http://www.w3.org/2000/svg">
<g id="Group">
<path id="Vector" d="M37.7919 34.8703C37.3701 35.2921 36.9482 35.9249 36.5264 36.3468C35.2611 36.5577 34.6284 37.1905 34.8393 38.6669C32.5195 38.456 31.6759 39.9325 30.6215 41.62C29.3561 43.5183 29.5671 45.6275 29.778 47.9477C29.3562 48.5805 28.9344 49.2133 28.3017 49.8461C26.8255 50.057 26.6145 50.9007 26.8254 52.1663C26.8254 52.3772 26.6145 52.5881 26.4036 52.799C23.0293 52.5881 23.0293 56.3848 20.7095 57.4394C19.0224 58.2831 20.9205 59.7595 20.9205 60.8142C20.9205 63.1344 19.2333 65.0327 19.866 67.5638C20.0769 68.6185 19.4442 69.2513 19.0224 70.095C17.5461 70.5168 17.5461 71.7824 17.5461 72.837C17.5461 73.2588 17.3353 73.6808 17.3353 74.1026C16.0699 74.1026 15.2263 74.9463 14.3827 75.79C13.1174 77.0556 11.4303 78.9538 9.74318 77.6883C8.47782 76.6336 9.32132 74.3135 10.5867 72.837C11.6411 71.5714 11.0085 71.1497 9.74318 70.9387C9.53229 69.2513 10.3758 68.1966 11.2193 66.9311C13.3283 66.2983 12.4847 64.4 12.6956 63.1344C13.5392 58.705 15.6481 54.9083 17.7571 51.1116C19.866 47.315 21.9749 43.5182 23.8729 39.7216C27.0363 33.6047 31.4651 28.3316 35.683 23.0585C37.7919 20.3164 40.1116 17.5743 42.2206 14.8323C38.0027 13.3558 33.7849 14.1995 29.778 14.8323C28.5126 15.0432 27.4581 15.4652 26.4036 15.0433C24.9274 14.1996 23.662 13.1449 23.662 11.2465C23.8729 9.3482 24.7166 8.0827 26.6146 7.87177C29.778 7.44992 32.7304 6.39529 35.8938 5.76251C40.7443 4.70788 45.384 2.59859 50.4454 2.17674C51.7108 1.96581 53.187 1.75494 54.2415 0.911234C55.7177 -0.354323 57.4049 0.0674783 59.092 0.0674783C61.8336 0.278404 62.8881 1.75496 62.2554 4.497C60.7791 9.98108 60.1465 15.6761 59.303 21.3711C58.8812 24.1131 59.092 26.6442 58.8811 29.3863C58.6703 32.7611 54.8741 35.2921 51.7107 34.4484C49.8127 34.0266 48.9692 32.5501 48.9692 30.6518C48.9692 28.1207 48.9692 25.5896 48.9692 22.6366C46.4385 23.9022 44.7513 25.3786 43.6968 27.4879C42.2206 30.2299 40.3226 32.5501 38.4245 34.8703C38.0027 34.4484 37.7919 34.6594 37.7919 34.8703Z" fill="#FF7AC5"/>
<path id="Vector_2" d="M9.53223 70.9387C10.7976 71.1496 11.4303 71.5714 10.3758 72.837C9.11049 74.3135 8.26687 76.4227 9.53223 77.6883C11.2194 78.9538 12.6956 77.0556 14.1719 75.79C15.0155 74.9463 15.8591 74.1026 17.1244 74.1026C16.2809 80.0085 14.3828 85.4926 12.9066 90.9767C10.165 101.312 9.53223 112.069 8.47776 122.826C8.05598 127.467 7.63427 128.521 4.47088 129.365C2.36195 129.998 1.09649 129.154 0.674707 127.256C0.463814 126.201 0.463917 125.358 0.253024 124.303C-0.80144 109.538 1.51833 95.4061 5.73618 81.274C6.79065 77.6883 6.36884 73.6808 9.53223 70.9387Z" fill="#FF7AC5"/>
<path id="Vector_3" d="M19.655 67.3529C19.0223 65.0327 20.7095 62.9234 20.7095 60.6032C20.7095 59.5486 18.8115 58.0721 20.4986 57.2284C22.8185 56.1738 23.0294 52.3771 26.1928 52.588C24.0838 57.4393 22.8184 62.9234 19.655 67.3529Z" fill="#FF7AC5"/>
<path id="Vector_4" d="M29.567 47.737C29.3561 45.6277 29.3562 43.5185 30.4107 41.4092C31.4651 39.9327 32.3087 38.2453 34.6285 38.4562C32.9414 41.6201 32.3086 45.2059 29.567 47.737Z" fill="#FF7AC5"/>
<path id="Vector_5" d="M12.4848 62.9233C12.2739 64.3998 13.1174 66.0873 11.0085 66.7201C10.7976 65.2436 11.0085 63.978 12.4848 62.9233Z" fill="#FF7AC5"/>
<path id="Vector_6" d="M17.3353 72.626C17.5462 71.5714 17.3353 70.095 18.8115 69.884C19.2333 71.1496 18.3897 71.9933 17.3353 72.626Z" fill="#FF7AC5"/>
<path id="Vector_7" d="M34.8394 38.6668C34.6285 37.4013 35.2612 36.5576 36.5265 36.3467C36.5265 37.6122 35.8939 38.245 34.8394 38.6668Z" fill="#FF7AC5"/>
<path id="Vector_8" d="M26.6147 51.9553C26.4038 50.6897 26.8254 49.8459 28.0908 49.635C28.3017 50.6896 27.6691 51.5334 26.6147 51.9553Z" fill="#FF7AC5"/>
<path id="Vector_9" d="M37.7919 34.8704C38.0028 34.6594 38.2137 34.4485 38.4246 34.4485C38.2137 34.8703 38.0028 34.8704 37.7919 34.8704Z" fill="#FF7AC5"/>
</g>
</svg>
