<svg width="31" height="30" viewBox="0 0 31 30" fill="none" xmlns="http://www.w3.org/2000/svg">
<g id="programming">
<g id="Vector">
<path d="M13.2568 0.304929L30.6095 13.8234C30.8173 13.9852 30.8491 14.2811 30.6797 14.4836L20.8661 26.2207C20.6968 26.4232 20.3905 26.4556 20.1827 26.2938L13.9222 21.4166L12.5336 23.969L12.6845 24.0865C12.8922 24.2483 12.9239 24.5445 12.7545 24.747C12.5851 24.9496 12.2788 24.982 12.071 24.8201L6.0348 20.1177C5.82703 19.9558 5.79518 19.66 5.96455 19.4574C6.13392 19.2548 6.44045 19.2222 6.64822 19.384L6.79961 19.502L9.09163 17.6534L2.83 12.7753C2.62224 12.6135 2.59039 12.3176 2.75976 12.1151L12.5733 0.378044C12.7427 0.175478 13.049 0.143072 13.2568 0.304929ZM11.7638 23.3693L13.1505 20.8203L9.85899 18.2548L7.56875 20.1012L11.7638 23.3693L11.7638 23.3693ZM13.0213 1.33303L5.048 10.8691L21.6448 23.7986L29.6181 14.2626L13.0213 1.33303ZM12.1195 18.8012L20.4179 25.266L21.0314 24.5323L12.733 18.0675L4.43458 11.6028L3.82116 12.3364L12.1195 18.8012Z" fill="#4DD78A" style="mix-blend-mode:multiply"/>
</g>
<g id="Vector_2">
<path d="M12.0621 18.1279C12.2314 17.9254 12.5371 17.8926 12.7453 18.0548C12.9536 18.217 12.9849 18.5124 12.8155 18.7149C12.6462 18.9174 12.3403 18.9505 12.132 18.7883C11.9238 18.626 11.8927 18.3304 12.0621 18.1279Z" fill="#4DD78A" style="mix-blend-mode:multiply"/>
</g>
<g id="Vector_3">
<path d="M27.2579 14.8878L15.9122 6.04368C15.9122 6.04368 15.9116 6.04324 15.9111 6.04283C15.7028 5.88044 15.6708 5.58363 15.8407 5.3804C16.0105 5.17717 16.3178 5.14438 16.5262 5.30677L27.873 14.1517C28.0824 14.3149 28.1141 14.612 27.9443 14.8153C27.7745 15.0185 27.4673 15.051 27.2579 14.8878Z" fill="#4DD78A" style="mix-blend-mode:multiply"/>
</g>
<g id="Vector_4">
<path d="M26.0367 16.3497L19.9875 11.6348C19.9869 11.6344 19.9869 11.6344 19.9869 11.6344C19.7781 11.4716 19.7467 11.1754 19.9165 10.9722C20.0863 10.7691 20.3928 10.7361 20.6016 10.8989L26.6514 15.6142C26.8608 15.7774 26.8927 16.0741 26.7229 16.2773C26.5532 16.4804 26.2461 16.5129 26.0367 16.3497Z" fill="#4DD78A" style="mix-blend-mode:multiply"/>
</g>
<g id="Vector_5">
<path d="M24.8147 17.8134L16.4955 11.3289C16.4949 11.3285 16.4949 11.3285 16.4949 11.3285C16.2861 11.1656 16.2547 10.8693 16.4245 10.6661C16.5943 10.4629 16.9011 10.4297 17.11 10.5925L25.4297 17.0775C25.639 17.2407 25.671 17.5375 25.5012 17.7407C25.3312 17.9441 25.0241 17.9766 24.8147 17.8134Z" fill="#4DD78A" style="mix-blend-mode:multiply"/>
</g>
<g id="Vector_6">
<path d="M23.5942 19.2743L18.3014 15.1492C18.0921 14.986 18.0601 14.6893 18.2299 14.4861C18.3997 14.283 18.7067 14.2505 18.9161 14.4137L24.209 18.5386C24.4184 18.7018 24.4501 18.9987 24.2803 19.2019C24.1106 19.405 23.8035 19.4375 23.5942 19.2743Z" fill="#4DD78A" style="mix-blend-mode:multiply"/>
</g>
<g id="Vector_7">
<path d="M22.3715 20.7361L12.5388 13.0716L12.5386 13.0719C12.3291 12.9086 12.2974 12.6115 12.4672 12.4083C12.637 12.2051 12.9441 12.1726 13.1536 12.3359L22.9863 20.0003C23.1957 20.1636 23.2276 20.4604 23.0578 20.6636C22.888 20.8668 22.5809 20.8993 22.3715 20.7361Z" fill="#4DD78A" style="mix-blend-mode:multiply"/>
</g>
<g id="Vector_8">
<path d="M21.1511 22.1987L18.1281 19.8429C17.9188 19.6798 17.8869 19.3832 18.0566 19.1802C18.2263 18.9771 18.5335 18.9444 18.7428 19.1075L21.7658 21.4634C21.9751 21.6265 22.007 21.923 21.8373 22.1261C21.6674 22.3293 21.3604 22.3618 21.1511 22.1987Z" fill="#4DD78A" style="mix-blend-mode:multiply"/>
</g>
</g>
</svg>
