<svg width="300" height="77" viewBox="0 0 300 77" fill="none" xmlns="http://www.w3.org/2000/svg">
<g clip-path="url(#clip0_144_240)">
<path d="M154.74 77H153.19C157.003 52.1467 156.997 27.29 153.17 2.43C153.161 2.36678 153.165 2.30251 153.181 2.24097C153.197 2.17942 153.225 2.12182 153.263 2.07154C153.302 2.02126 153.349 1.97931 153.404 1.94814C153.458 1.91697 153.518 1.8972 153.58 1.89L153.87 1.85C154.37 1.78333 154.683 1.99333 154.81 2.48C161.323 27.4867 161.3 52.3267 154.74 77Z" fill="#629D74"/>
<path d="M32.63 47.34C20.88 44.17 2.18 41.52 5.81 23.52C6.77667 18.76 9.78333 15.2367 14.83 12.95C23.2767 9.11665 31.6767 9.21999 40.03 13.26C46.0233 16.1667 48.9467 20.89 48.8 27.43C48.7895 27.9128 48.5897 28.3721 48.2436 28.7088C47.8975 29.0455 47.4329 29.2327 46.95 29.23L37.96 29.18C37.4688 29.1766 36.9917 29.0153 36.5991 28.72C36.2066 28.4247 35.9194 28.011 35.78 27.54C34.16 22.06 27.13 20.65 22.49 22.69C19.23 24.12 18.08 27.29 21.18 29.83C22.1333 30.61 23.9267 31.4133 26.56 32.24C30.72 33.54 34.86 34.9 38.98 36.32C43 37.7 46.61 39.76 48.55 43.71C52.92 52.62 49.13 63.76 39.37 67.32C31.1833 70.3067 23.35 70.1367 15.87 66.81C9.09 63.79 3.33 57.01 4.94 49.19C5.00667 48.8633 5.20667 48.7 5.54 48.7L17.46 48.69C17.7867 48.69 18.0133 48.8433 18.14 49.15C18.76 50.63 18.76 52.24 19.55 53.49C21.94 57.3 27.73 57.82 31.77 56.98C37.5 55.79 38.64 48.96 32.63 47.34Z" fill="#476564"/>
<path d="M126.78 46.61C119.913 45.23 114.727 43.6033 111.22 41.73C103.027 37.3433 100.28 30.76 102.98 21.98C108.56 3.88997 147.88 7.28997 145.41 27.53C145.352 27.9986 145.123 28.4299 144.768 28.7429C144.413 29.0558 143.955 29.229 143.48 29.23H134.2C133.813 29.23 133.53 29.0633 133.35 28.73C132.2 26.55 131.36 24.2 128.57 22.95C125.05 21.39 118.13 20.99 116.33 25.34C114.57 29.62 121.91 32.11 125.03 32.99C133.34 35.31 143.92 37.18 146.46 46.68C147.64 51.1066 147.147 55.3966 144.98 59.55C138.08 72.79 113.83 72.06 105.18 61.47C102.71 58.44 100.58 53.34 101.75 49.26C101.857 48.88 102.103 48.69 102.49 48.69H114.21C114.537 48.69 114.76 48.84 114.88 49.14C116.03 52.02 116.16 55.21 119.47 56.32C123.25 57.58 131.69 58.56 133.14 53.18C134.27 48.99 130.27 47.31 126.78 46.61Z" fill="#476564"/>
<path d="M93.02 39.24C95.7933 40.72 97.6767 42.81 98.67 45.51C103.67 59.13 93.22 67.84 80.5 67.99C71.82 68.09 63.1133 68.1467 54.38 68.16C54.0679 68.1613 53.7587 68.1007 53.47 67.9817C53.1813 67.8627 52.9188 67.6876 52.6977 67.4664C52.4766 67.2453 52.3011 66.9825 52.1814 66.6931C52.0616 66.4037 52 66.0934 52 65.78V13.26C52 13.0131 52.0486 12.7686 52.1431 12.5405C52.2376 12.3124 52.3761 12.1052 52.5506 11.9306C52.7252 11.756 52.9325 11.6176 53.1606 11.5231C53.3886 11.4286 53.6331 11.38 53.88 11.38C62.62 11.36 71.4933 11.3633 80.5 11.39C84 11.4033 87.4833 12.4033 90.95 14.39C98.95 18.98 100.47 29.47 95.01 36.56C94.44 37.29 93.39 37.64 92.84 38.52C92.64 38.8267 92.7 39.0667 93.02 39.24ZM67.5 44.18C67.42 43.9133 67.5 43.58 67.74 43.18C69.44 40.31 71.61 35.96 74.08 33.77C74.3333 33.55 74.63 33.4466 74.97 33.46C78.18 33.59 83.15 33.58 84.82 30.39C85.7533 28.6033 85.4167 26.76 83.81 24.86C83.59 24.6067 83.3167 24.4466 82.99 24.38C77.52 23.35 71.53 23.84 66.02 23.74C65.8821 23.74 65.7498 23.7948 65.6523 23.8923C65.5548 23.9898 65.5 24.1221 65.5 24.26V55.23C65.5 55.55 65.66 55.7133 65.98 55.72C70.36 55.7933 74.7367 55.79 79.11 55.71C82.07 55.66 85.16 54.92 85.9 51.95C86.9333 47.87 85.2967 45.7133 80.99 45.48C76.8233 45.2467 72.7967 45.16 68.91 45.22C68.592 45.2259 68.2813 45.127 68.0262 44.9389C67.7711 44.7508 67.5861 44.4839 67.5 44.18Z" fill="#476564"/>
<path d="M172.63 13.16H169.11C168.911 13.16 168.75 13.3212 168.75 13.52V46.08C168.75 46.2788 168.911 46.44 169.11 46.44H172.63C172.829 46.44 172.99 46.2788 172.99 46.08V13.52C172.99 13.3212 172.829 13.16 172.63 13.16Z" fill="#476564"/>
<path d="M195.22 26.2C195.98 24.86 197.33 23.9833 199.27 23.57C205.117 22.3167 208.963 24.3767 210.81 29.75C212.54 34.76 211.43 41.53 207.27 44.88C204.04 47.48 197.49 47.97 194.84 43.81C194.407 43.1367 194.153 43.1967 194.08 43.99L193.9 45.78C193.86 46.1933 193.63 46.4033 193.21 46.41L190.98 46.44C190.493 46.4467 190.25 46.21 190.25 45.73V13.48C190.25 13.3 190.34 13.21 190.52 13.21L194.22 13.19C194.294 13.19 194.365 13.2195 194.418 13.272C194.47 13.3245 194.5 13.3957 194.5 13.47L194.49 26C194.49 26.98 194.733 27.0467 195.22 26.2ZM200.636 43.539C201.494 43.5525 202.346 43.3457 203.145 42.9306C203.944 42.5154 204.674 41.8999 205.292 41.1193C205.911 40.3387 206.407 39.4083 206.751 38.381C207.095 37.3538 207.282 36.25 207.299 35.1326C207.317 34.0152 207.165 32.9061 206.853 31.8685C206.541 30.831 206.075 29.8854 205.481 29.0858C204.888 28.2861 204.178 27.648 203.392 27.208C202.607 26.7679 201.761 26.5345 200.904 26.521C200.046 26.5075 199.194 26.7143 198.395 27.1294C197.596 27.5446 196.866 28.1601 196.248 28.9407C195.629 29.7213 195.133 30.6518 194.789 31.679C194.445 32.7062 194.258 33.81 194.241 34.9274C194.223 36.0448 194.375 37.1539 194.687 38.1915C194.999 39.229 195.465 40.1746 196.059 40.9742C196.652 41.7739 197.362 42.412 198.148 42.852C198.933 43.2921 199.779 43.5255 200.636 43.539Z" fill="#476564"/>
<path d="M277.18 14.46L271.98 20.75C271.949 20.7876 271.908 20.8172 271.863 20.8363C271.818 20.8554 271.769 20.8635 271.72 20.86L269.23 20.71C269.176 20.7073 269.124 20.6908 269.079 20.6621C269.034 20.6333 268.997 20.5933 268.972 20.5459C268.946 20.4986 268.934 20.4455 268.935 20.3919C268.937 20.3382 268.952 20.2859 268.98 20.24L272.7 14.02C272.727 13.9717 272.766 13.9314 272.813 13.9033C272.861 13.8752 272.915 13.8602 272.97 13.86L276.95 13.96C277.007 13.9627 277.062 13.9809 277.109 14.0127C277.156 14.0444 277.193 14.0885 277.217 14.1401C277.241 14.1917 277.25 14.2488 277.243 14.3052C277.237 14.3616 277.215 14.4152 277.18 14.46Z" fill="#476564"/>
<path d="M181.72 20.21C183.206 20.21 184.41 19.0057 184.41 17.52C184.41 16.0344 183.206 14.83 181.72 14.83C180.234 14.83 179.03 16.0344 179.03 17.52C179.03 19.0057 180.234 20.21 181.72 20.21Z" fill="#476564"/>
<path d="M220.67 26.87C221.797 24.3633 223.77 23.1167 226.59 23.13C227.197 23.1367 227.5 23.4433 227.5 24.05L227.51 26.51C227.517 27.0567 227.243 27.3133 226.69 27.28C218.75 26.78 220.36 39.57 220.53 45.91C220.533 45.9773 220.522 46.0445 220.498 46.1075C220.474 46.1705 220.438 46.228 220.391 46.2765C220.344 46.3251 220.288 46.3637 220.226 46.3901C220.164 46.4165 220.097 46.43 220.03 46.43L216.71 46.42C216.65 46.42 216.59 46.4081 216.534 46.385C216.478 46.3619 216.427 46.328 216.385 46.2853C216.342 46.2425 216.308 46.1918 216.285 46.136C216.262 46.0802 216.25 46.0204 216.25 45.96V24C216.25 23.6667 216.417 23.5 216.75 23.5H219.48C219.608 23.5 219.731 23.5502 219.823 23.64C219.915 23.7297 219.967 23.8518 219.97 23.98L220.05 26.74C220.077 27.6867 220.283 27.73 220.67 26.87Z" fill="#476564"/>
<path d="M234.22 36C233.627 35.9933 233.37 36.2833 233.45 36.87C234.42 43.74 241.01 44.73 246.53 42.39C246.599 42.3614 246.673 42.3477 246.747 42.3497C246.822 42.3517 246.894 42.3695 246.961 42.4017C247.027 42.4339 247.086 42.4799 247.132 42.5366C247.178 42.5932 247.212 42.6592 247.23 42.73L247.82 44.98C247.9 45.3 247.783 45.52 247.47 45.64C241.94 47.73 234.83 47.71 231.22 42.36C227.49 36.84 229.11 26.91 235.48 23.93C237.633 22.9233 239.867 22.7333 242.18 23.36C247.52 24.81 249.69 30.32 248.85 35.48C248.79 35.86 248.567 36.0466 248.18 36.04L234.22 36ZM234.05 32.64L244.71 32.6C244.776 32.6 244.84 32.5736 244.887 32.5268C244.934 32.4799 244.96 32.4163 244.96 32.35V32.01C244.955 30.5063 244.363 29.0662 243.314 28.0067C242.266 26.9471 240.847 26.3548 239.37 26.36H239.35C238.619 26.3626 237.895 26.5118 237.22 26.7991C236.545 27.0865 235.933 27.5063 235.417 28.0347C234.902 28.5631 234.494 29.1896 234.216 29.8786C233.939 30.5675 233.797 31.3054 233.8 32.05V32.39C233.8 32.4563 233.826 32.5199 233.873 32.5668C233.92 32.6136 233.984 32.64 234.05 32.64Z" fill="#476564"/>
<path d="M257.93 27.09C259.21 24.4634 261.313 23.12 264.24 23.06C264.338 23.0574 264.435 23.0743 264.526 23.1097C264.616 23.1452 264.699 23.1986 264.769 23.2666C264.839 23.3347 264.895 23.4161 264.933 23.506C264.971 23.5959 264.99 23.6925 264.99 23.79L265 26.58C265.007 27.0934 264.753 27.34 264.24 27.32C263.21 27.26 262.27 27.07 261.32 27.74C256.42 31.16 257.99 40.79 257.99 45.98C257.99 46.0413 257.978 46.1019 257.954 46.1584C257.93 46.2149 257.896 46.266 257.852 46.3089C257.808 46.3517 257.756 46.3854 257.699 46.4079C257.642 46.4304 257.581 46.4414 257.52 46.44L254.21 46.43C253.903 46.43 253.75 46.2734 253.75 45.96V23.75C253.75 23.59 253.833 23.5067 254 23.5H256.99C257.323 23.5 257.49 23.6667 257.49 24V26.98C257.49 27.66 257.637 27.6967 257.93 27.09Z" fill="#476564"/>
<path d="M291.05 44.29C288.22 47.87 281.67 47.71 279.24 44.18C276.83 40.69 277.98 35.58 281.83 33.62C284.303 32.3666 286.847 31.78 289.46 31.86C291.213 31.9133 291.737 31.1366 291.03 29.53L290.81 29.02C290.017 27.2133 288.63 26.3133 286.65 26.32C284.597 26.32 282.673 26.88 280.88 28C280.62 28.16 280.443 28.0933 280.35 27.8L279.64 25.52C279.54 25.2 279.64 24.9666 279.94 24.82C286.49 21.56 295.38 22.26 295.35 31.77C295.343 36.5566 295.48 41.18 295.76 45.64C295.787 46.1333 295.553 46.3866 295.06 46.4L292.87 46.45C292.45 46.4633 292.18 46.2666 292.06 45.86L291.64 44.4C291.52 43.9866 291.323 43.95 291.05 44.29ZM289.54 35.05C279.78 34.74 280.95 45.06 287.01 43.56C291.02 42.56 291.89 39.05 291.44 35.27C291.4 34.95 291.217 34.79 290.89 34.79C290.683 34.79 290.483 34.83 290.29 34.91C290.05 35.01 289.8 35.0566 289.54 35.05Z" fill="#476564"/>
<path d="M183.34 23.49H179.92C179.694 23.49 179.51 23.6736 179.51 23.9V46.02C179.51 46.2464 179.694 46.43 179.92 46.43H183.34C183.566 46.43 183.75 46.2464 183.75 46.02V23.9C183.75 23.6736 183.566 23.49 183.34 23.49Z" fill="#476564"/>
<path d="M272.88 23.5H269.38C269.176 23.5 269.01 23.6657 269.01 23.87V46.07C269.01 46.2743 269.176 46.44 269.38 46.44H272.88C273.084 46.44 273.25 46.2743 273.25 46.07V23.87C273.25 23.6657 273.084 23.5 272.88 23.5Z" fill="#476564"/>
<path d="M295.13 51.97H294.63C294.15 51.97 293.76 52.3595 293.76 52.84V68.66C293.76 69.1405 294.15 69.53 294.63 69.53H295.13C295.61 69.53 296 69.1405 296 68.66V52.84C296 52.3595 295.61 51.97 295.13 51.97Z" fill="#476564"/>
<path d="M168.6 54.2831C168.584 55.1169 169.198 55.8049 169.971 55.8197C170.744 55.8346 171.384 55.1707 171.4 54.3369C171.416 53.5031 170.802 52.8151 170.029 52.8003C169.256 52.7854 168.616 53.4493 168.6 54.2831Z" fill="#476564"/>
<path d="M250.8 55.7C250.666 55.7027 250.537 55.6529 250.44 55.5613C250.343 55.4696 250.285 55.3435 250.28 55.21L250.26 54.75C250.252 54.4982 250.277 54.2479 250.332 54.0134C250.388 53.7789 250.473 53.5649 250.582 53.3836C250.692 53.2024 250.824 53.0575 250.971 52.9573C251.119 52.8572 251.278 52.8037 251.44 52.8H251.72C252.045 52.792 252.362 52.9843 252.602 53.3347C252.842 53.6851 252.985 54.1652 253 54.67L253.02 55.13C253.023 55.1978 253.012 55.2654 252.988 55.329C252.964 55.3925 252.928 55.4507 252.881 55.5C252.835 55.5494 252.779 55.589 252.717 55.6164C252.655 55.6439 252.588 55.6587 252.52 55.66L250.8 55.7Z" fill="#476564"/>
<path d="M187.48 59.53L186.29 59.45C186.117 59.4433 186.047 59.3533 186.08 59.18L186.32 57.84C186.326 57.8054 186.339 57.7723 186.358 57.7428C186.377 57.7133 186.403 57.6879 186.433 57.6683C186.462 57.6487 186.496 57.6352 186.532 57.6286C186.568 57.622 186.604 57.6225 186.64 57.63C186.773 57.65 186.907 57.6733 187.04 57.7C187.46 57.7667 187.72 57.5933 187.82 57.18C187.973 56.5667 188.18 55.9833 188.44 55.43C188.74 54.7833 189.2 54.59 189.82 54.85C190.12 54.97 190.267 55.1933 190.26 55.52L190.25 57.05C190.25 57.1213 190.264 57.1919 190.292 57.2575C190.32 57.3232 190.361 57.3825 190.412 57.432C190.464 57.4815 190.524 57.5201 190.591 57.5455C190.658 57.571 190.729 57.5827 190.8 57.58L192.26 57.53C192.893 57.5033 193.227 57.8067 193.26 58.44L193.28 58.76C193.307 59.28 193.06 59.54 192.54 59.54H190.8C190.447 59.54 190.267 59.7167 190.26 60.07C190.207 63.21 190.217 65.1833 190.29 65.99C190.43 67.45 191.087 68.01 192.26 67.67C192.349 67.6445 192.443 67.6372 192.535 67.6487C192.627 67.6602 192.716 67.6902 192.796 67.7369C192.877 67.7836 192.947 67.846 193.002 67.9205C193.058 67.9949 193.098 68.0797 193.12 68.17L193.25 68.73C193.292 68.905 193.263 69.0896 193.169 69.2434C193.076 69.3971 192.925 69.5074 192.75 69.55C186.36 71.04 188.16 63.74 187.92 59.97C187.9 59.69 187.753 59.5433 187.48 59.53Z" fill="#476564"/>
<path d="M198 64.13C196.507 64.1367 196.21 64.7367 197.11 65.93C198.61 67.9233 200.577 68.4167 203.01 67.41C203.577 67.17 203.917 67.3533 204.03 67.96L204.09 68.22C204.138 68.4702 204.086 68.7292 203.946 68.942C203.806 69.1548 203.589 69.3047 203.34 69.36C198.58 70.44 194.11 68.98 194.41 63.23C194.85 55.06 205.93 55.24 204.65 63.58C204.59 63.94 204.38 64.12 204.02 64.12L198 64.13ZM197.17 62.34L202.31 62.24C202.342 62.24 202.374 62.2335 202.404 62.2208C202.434 62.2081 202.461 62.1896 202.483 62.1662C202.506 62.1429 202.523 62.1152 202.535 62.0849C202.546 62.0546 202.551 62.0224 202.55 61.99L202.54 61.85C202.524 61.1145 202.218 60.4151 201.69 59.9053C201.161 59.3955 200.453 59.1167 199.72 59.13H199.64C199.276 59.1378 198.917 59.2174 198.584 59.3643C198.251 59.5113 197.95 59.7227 197.699 59.9864C197.447 60.2502 197.25 60.5611 197.118 60.9014C196.986 61.2418 196.922 61.6049 196.93 61.97V62.11C196.933 62.1719 196.959 62.2304 197.004 62.2733C197.048 62.3161 197.108 62.3401 197.17 62.34Z" fill="#476564"/>
<path d="M217.89 58.33C221.42 55.73 224.6 57.68 225.06 61.83C225.34 64.3033 225.377 66.7367 225.17 69.13C225.15 69.3433 225.03 69.45 224.81 69.45L222.98 69.44C222.84 69.44 222.767 69.37 222.76 69.23L222.73 61.34C222.73 60.8171 222.526 60.3148 222.16 59.9395C221.794 59.5642 221.295 59.3456 220.77 59.33L220.13 59.31C219.788 59.2993 219.448 59.3576 219.13 59.4814C218.811 59.6053 218.52 59.7921 218.275 60.0309C218.03 60.2697 217.835 60.5556 217.702 60.8715C217.568 61.1874 217.5 61.527 217.5 61.87V68.96C217.5 69.26 217.347 69.4167 217.04 69.43L215.51 69.49C215.17 69.51 215 69.35 215 69.01L215.01 58.18C215.01 58.0014 215.065 57.8272 215.167 57.6805C215.269 57.5338 215.413 57.4215 215.58 57.3585C215.747 57.2956 215.929 57.285 216.103 57.3281C216.276 57.3712 216.432 57.4661 216.55 57.6L217.11 58.24C217.343 58.5067 217.603 58.5367 217.89 58.33Z" fill="#476564"/>
<path d="M260.555 69.7989C259.008 69.707 257.565 68.9532 256.542 67.7032C255.519 66.4533 255.001 64.8096 255.1 63.1337C255.15 62.3039 255.349 61.4912 255.688 60.7419C256.026 59.9927 256.497 59.3216 257.073 58.767C257.649 58.2124 258.32 57.7851 259.046 57.5096C259.772 57.234 260.54 57.1156 261.305 57.1611C262.852 57.253 264.295 58.0068 265.318 59.2568C266.341 60.5067 266.859 62.1504 266.76 63.8263C266.71 64.6561 266.511 65.4688 266.172 66.2181C265.834 66.9673 265.363 67.6384 264.787 68.193C264.211 68.7476 263.54 69.1749 262.814 69.4504C262.088 69.726 261.32 69.8444 260.555 69.7989ZM260.902 67.88C261.807 67.8816 262.675 67.4227 263.316 66.6043C263.957 65.7859 264.318 64.675 264.32 63.516C264.321 62.9421 264.234 62.3737 264.063 61.8432C263.893 61.3127 263.643 60.8305 263.327 60.4242C263.011 60.0178 262.635 59.6953 262.222 59.4749C261.809 59.2546 261.365 59.1408 260.918 59.14C260.013 59.1384 259.145 59.5973 258.504 60.4157C257.863 61.2341 257.502 62.345 257.5 63.504C257.499 64.0779 257.586 64.6463 257.757 65.1768C257.927 65.7073 258.177 66.1895 258.493 66.5958C258.809 67.0022 259.185 67.3247 259.598 67.5451C260.011 67.7654 260.455 67.8792 260.902 67.88Z" fill="#476564"/>
<path d="M271.9 58.32C275.44 55.73 278.6 57.7 279.06 61.83C279.34 64.3033 279.377 66.7366 279.17 69.13C279.15 69.3433 279.03 69.45 278.81 69.45L276.98 69.44C276.84 69.44 276.77 69.37 276.77 69.23L276.73 61.34C276.728 60.8162 276.523 60.3138 276.159 59.9389C275.795 59.5639 275.301 59.3455 274.78 59.33L274.14 59.31C273.798 59.2979 273.456 59.3549 273.137 59.4776C272.817 59.6004 272.525 59.7863 272.278 60.0243C272.032 60.2623 271.836 60.5475 271.702 60.8629C271.569 61.1783 271.5 61.5174 271.5 61.86V68.7C271.5 69.1666 271.267 69.4133 270.8 69.44L269.51 69.49C269.17 69.51 269 69.35 269 69.01L269.01 58.09C269.009 57.9204 269.06 57.7545 269.155 57.6143C269.251 57.474 269.386 57.3659 269.544 57.3042C269.703 57.2425 269.875 57.2301 270.041 57.2687C270.206 57.3072 270.356 57.3948 270.47 57.52L271.12 58.24C271.36 58.5 271.62 58.5266 271.9 58.32Z" fill="#476564"/>
<path d="M287.84 68.83C281.02 73.38 277.98 61.41 287.49 61.78C288.25 61.8067 288.493 61.4667 288.22 60.76L288.11 60.49C287.857 59.83 287.383 59.4333 286.69 59.3C285.497 59.0667 284.37 59.2167 283.31 59.75C282.83 59.99 282.553 59.8433 282.48 59.31L282.38 58.64C282.313 58.16 282.52 57.87 283 57.77C286.06 57.17 289.38 56.26 290.48 60.47C290.933 62.2167 290.963 65.0733 290.57 69.04C290.543 69.3667 290.363 69.5367 290.03 69.55C289.463 69.5633 288.993 69.36 288.62 68.94C288.393 68.6733 288.133 68.6367 287.84 68.83ZM287.76 63.65C286.453 63.4633 285.303 63.78 284.31 64.6C284.063 64.8023 283.872 65.0653 283.756 65.3632C283.641 65.6612 283.604 65.9841 283.651 66.3003C283.697 66.6165 283.824 66.9153 284.021 67.1676C284.217 67.4199 284.475 67.6171 284.77 67.74C287.02 68.68 288.78 66.06 288.2 64.03C288.133 63.81 287.987 63.6833 287.76 63.65Z" fill="#476564"/>
<path d="M177.18 58.37C179.21 56.81 182.47 56.72 183.8 59.23C185.04 61.56 184.51 66.38 184.49 68.93C184.49 69.2566 184.327 69.4266 184 69.44L182.52 69.49C182.187 69.5033 182.02 69.3466 182.02 69.02L181.98 61.09C181.979 60.8444 181.926 60.6018 181.824 60.3781C181.723 60.1544 181.575 59.9548 181.391 59.7923C181.207 59.6299 180.99 59.5082 180.756 59.4354C180.521 59.3626 180.274 59.3403 180.03 59.37L179.2 59.47C178.523 59.5553 177.901 59.8848 177.449 60.3967C176.998 60.9086 176.75 61.5677 176.75 62.25L176.74 69C176.74 69.3266 176.577 69.4866 176.25 69.48L175.1 69.44C174.72 69.4266 174.527 69.23 174.52 68.85L174.45 58.55C174.443 57.51 174.9 57.2366 175.82 57.73C176.02 57.8366 176.19 58 176.33 58.22C176.563 58.5866 176.847 58.6366 177.18 58.37Z" fill="#476564"/>
<path d="M209.85 58.4C210.597 57.7134 211.477 57.3 212.49 57.16C212.91 57.1 213.137 57.2834 213.17 57.71L213.28 59.02C213.313 59.3867 213.143 59.56 212.77 59.54C208.37 59.3 209.46 66.35 209.52 68.89C209.527 69.25 209.35 69.4367 208.99 69.45L208.02 69.48C207.527 69.4934 207.277 69.2567 207.27 68.77L207.21 58.21C207.208 58.0631 207.245 57.9183 207.318 57.7908C207.391 57.6633 207.497 57.5577 207.625 57.4852C207.753 57.4126 207.898 57.3757 208.044 57.3783C208.191 57.3809 208.335 57.423 208.46 57.5C208.78 57.6867 209 57.9334 209.12 58.24C209.28 58.6467 209.523 58.7 209.85 58.4Z" fill="#476564"/>
<path d="M233.82 68.81C227.03 73.45 224 61.38 233.49 61.79C234.25 61.8233 234.493 61.4833 234.22 60.77L234.13 60.54C233.857 59.8267 233.347 59.4067 232.6 59.28C231.447 59.0733 230.353 59.2267 229.32 59.74C229.237 59.78 229.146 59.8003 229.054 59.7994C228.962 59.7985 228.871 59.7764 228.789 59.7348C228.707 59.6932 228.635 59.6333 228.58 59.5596C228.525 59.4859 228.487 59.4005 228.47 59.31L228.37 58.77C228.277 58.2433 228.487 57.9133 229 57.78C232.02 57.01 235.8 56.64 236.47 60.48C236.87 62.82 236.923 65.65 236.63 68.97C236.616 69.1145 236.551 69.2493 236.446 69.3501C236.342 69.4509 236.205 69.5112 236.06 69.52C235.46 69.5533 234.977 69.3533 234.61 68.92C234.377 68.6467 234.113 68.61 233.82 68.81ZM233.69 63.66C232.01 63.3867 230.727 63.9333 229.84 65.3C229.631 65.6275 229.531 66.0133 229.555 66.4014C229.579 66.7896 229.725 67.1598 229.973 67.4585C230.22 67.7572 230.556 67.9687 230.931 68.0625C231.307 68.1563 231.702 68.1274 232.06 67.98C233.78 67.28 234.507 66.0233 234.24 64.21C234.193 63.89 234.01 63.7067 233.69 63.66Z" fill="#476564"/>
<path d="M247.29 67.33C247.683 67.21 247.913 67.35 247.98 67.75L248.12 68.67C248.167 68.9633 248.05 69.1567 247.77 69.25C243.163 70.69 240.257 69.44 239.05 65.5C238.577 63.9467 238.707 62.39 239.44 60.83C241.04 57.44 244.77 56.55 248.12 57.87C248.307 57.9433 248.363 58.0733 248.29 58.26L247.82 59.52C247.747 59.7133 247.613 59.7767 247.42 59.71C239.46 57.05 238.97 69.79 247.29 67.33Z" fill="#476564"/>
<path d="M170.87 57.54H169.13C168.92 57.54 168.75 57.7101 168.75 57.92V69.08C168.75 69.2898 168.92 69.46 169.13 69.46H170.87C171.08 69.46 171.25 69.2898 171.25 69.08V57.92C171.25 57.7101 171.08 57.54 170.87 57.54Z" fill="#476564"/>
<path d="M252.33 57.56H250.91C250.678 57.56 250.49 57.748 250.49 57.98V69.02C250.49 69.252 250.678 69.44 250.91 69.44H252.33C252.562 69.44 252.75 69.252 252.75 69.02V57.98C252.75 57.748 252.562 57.56 252.33 57.56Z" fill="#476564"/>
</g>
<defs>
<clipPath id="clip0_144_240">
<rect width="300" height="77" fill="white"/>
</clipPath>
</defs>
</svg>
