<svg width="202" height="114" viewBox="0 0 202 114" fill="none" xmlns="http://www.w3.org/2000/svg">
<g id="Group 1">
<g id="Group">
<path id="Vector" fill-rule="evenodd" clip-rule="evenodd" d="M183.996 45.117C183.959 44.3302 183.967 43.5643 184.004 42.8452C184.13 40.6829 186.14 40.6903 186.296 40.6933C186.624 40.7008 188.083 40.7931 188.433 42.479C188.455 42.5795 188.507 43.3074 188.522 43.5881C188.552 44.1865 188.567 44.7746 188.485 45.3648C188.559 46.366 188.723 47.3961 189.036 48.3653C189.49 49.7959 190.227 51.1164 191.559 51.8198C193.941 53.0852 197.075 53.0338 199.695 53.3553C200.789 53.4893 201.622 54.4019 201.66 55.5035C201.689 56.6059 200.915 57.5676 199.829 57.7678C196.554 58.3737 192.787 61.3519 190.39 63.7501C189.653 64.487 188.827 66.2422 187.904 67.3661C187.16 68.2668 186.334 68.8705 185.552 69.1101C185.247 69.2032 183.557 69.5426 182.798 67.7934C182.59 67.3021 181.853 64.7297 181.786 64.4364C181.384 62.7557 180.811 61.2543 179.687 59.9175C178.712 58.7585 177.528 57.7462 176.106 57.185C175.533 56.9587 174.938 56.7868 174.342 56.6096C174.134 56.5843 173.546 56.5099 173.337 56.4392C172.913 56.2977 172.6 56.0759 172.377 55.8549C171.953 55.4366 171.737 54.9371 171.7 54.3684C171.67 53.9933 171.722 53.5481 171.99 53.0546C172.191 52.7041 172.645 52.1763 173.464 51.8339C174.32 51.4759 176.158 51.1357 176.486 51.0471C178.764 50.4338 180.997 49.5012 182.746 47.8844C183.617 47.0761 183.818 46.2044 183.996 45.117ZM185.455 51.4469C186.334 53.2675 187.644 54.8001 189.467 55.7656C190.219 56.1668 191.038 56.4712 191.886 56.7079C190.137 57.9256 188.515 59.3101 187.227 60.5933C186.81 61.0109 186.356 61.6868 185.872 62.4289C185.306 60.4475 184.473 58.6678 183.103 57.0391C182.292 56.0789 181.376 55.2013 180.357 54.4696C182.202 53.7387 183.952 52.7606 185.455 51.4469Z" fill="#8021FA"/>
</g>
<g id="Group_2">
<path id="Vector_2" fill-rule="evenodd" clip-rule="evenodd" d="M137.467 108.365C154.409 108.774 171.722 107.948 187.919 113.739C189.081 114.156 190.361 113.545 190.778 112.392C191.194 111.231 190.584 109.95 189.423 109.533C172.772 103.579 154.989 104.316 137.579 103.899C136.344 103.869 135.324 104.844 135.294 106.072C135.264 107.308 136.239 108.328 137.467 108.365Z" fill="#8021FA"/>
</g>
<g id="Group_3">
<path id="Vector_3" fill-rule="evenodd" clip-rule="evenodd" d="M136.209 83.616C141.457 78.789 147.181 75.1692 154.103 73.3768C155.294 73.0679 156.009 71.8487 155.704 70.6555C155.391 69.4623 154.178 68.7448 152.979 69.0537C145.328 71.0344 138.986 74.9943 133.187 80.3283C132.279 81.1627 132.22 82.5762 133.053 83.4835C133.887 84.3909 135.301 84.4505 136.209 83.616Z" fill="#8021FA"/>
</g>
<g id="Group_4">
<path id="Vector_4" fill-rule="evenodd" clip-rule="evenodd" d="M121.59 30.283C123.994 22.0543 128.721 15.6165 135.964 10.968C136.998 10.3026 137.303 8.91959 136.633 7.88272C135.971 6.8451 134.586 6.54365 133.552 7.20984C125.364 12.4627 120.02 19.7327 117.303 29.0318C116.96 30.2145 117.638 31.4553 118.821 31.8007C120.005 32.1461 121.248 31.4658 121.59 30.283Z" fill="#8021FA"/>
</g>
<g id="Group_5">
<path id="Vector_5" fill-rule="evenodd" clip-rule="evenodd" d="M37.1666 18.8396C35.7673 20.5025 34.5167 22.2889 33.4449 24.187C32.8196 25.2819 31.718 27.8321 31.9041 29.6788C32.0456 31.0625 32.7005 32.188 34.0106 32.8519C36.1022 33.9148 37.777 33.7846 39.0647 33.1422C40.3004 32.5274 41.2828 31.329 41.8932 29.71C42.98 26.8197 42.8535 22.4504 42.3026 19.8184C43.7913 18.3007 45.4215 16.9207 47.1558 15.6896C60.4945 6.23417 80.0633 9.76681 95.1215 23.9049C100.399 28.8577 102.907 39.2704 104.225 50.4929C106.302 68.1025 105.118 87.7703 104.954 93.5323C104.917 95.0485 105.081 95.9477 105.155 96.1271C105.572 97.1178 106.317 97.3783 106.83 97.4751C107.552 97.6091 108.125 97.4677 108.594 97.222C109.219 96.8945 109.741 96.3199 109.979 95.4252C110.098 94.9681 110.135 94.3332 110.12 93.6551C110.105 93.2539 110.009 92.8163 110.09 92.5289C110.671 90.5095 111.371 88.5362 112.048 86.5503C114.326 79.8699 117.281 73.61 120.548 67.3567C130.962 47.4753 141.011 26.4617 158.078 11.3143C159.001 10.4963 159.091 9.08428 158.272 8.16203C157.453 7.24054 156.039 7.15642 155.116 7.97445C137.639 23.4821 127.248 44.9304 116.596 65.2859C114.117 70.0155 111.825 74.7517 109.852 79.6592C110.031 68.5796 109.763 53.5655 107.299 41.1737C105.55 32.3368 102.625 24.816 98.1808 20.6491C81.3809 4.8765 59.4524 1.49715 44.5729 12.046C43.1066 13.0836 41.7146 14.2165 40.3972 15.4387C32.4922 1.63414 15.9453 -3.84274 1.30403 2.83923C0.187504 3.35134 -0.311194 4.677 0.202406 5.79798C0.716005 6.91896 2.04092 7.41393 3.15744 6.90182C16.0644 1.01257 30.6834 6.20737 37.1666 18.8396ZM38.3129 24.7706C37.9705 25.2983 37.6431 25.8372 37.3304 26.3873C37.1071 26.7729 36.7721 27.4442 36.5414 28.1618C36.467 28.4111 36.4074 28.8034 36.3777 29.0431C36.6531 29.1741 36.8763 29.2426 37.0773 29.1436C37.4048 28.9791 37.5462 28.5689 37.71 28.135C38.0747 27.1681 38.2608 25.9645 38.3129 24.7706Z" fill="#8021FA"/>
</g>
</g>
</svg>
