<svg width="177" height="177" viewBox="0 0 177 177" fill="none" xmlns="http://www.w3.org/2000/svg">
<g clip-path="url(#clip0_96_147)">
<path d="M55.1804 104.398C56.5744 104.639 57.9668 104.887 59.3547 105.172C60.0918 105.314 60.8309 105.466 61.5752 105.558C65.5487 106.045 69.5308 106.485 73.4922 107.069C75.9293 107.44 78.3624 107.836 80.7916 108.258L84.4331 108.902L88.0668 109.587C88.7985 109.745 89.5159 109.962 90.2122 110.235C90.5024 110.334 90.7645 110.501 90.9768 110.722C91.1891 110.943 91.3456 111.213 91.4332 111.508C91.694 112.319 91.1348 113.03 90.1208 113.039C89.4613 113.028 88.8063 112.935 88.1711 112.761C86.7164 112.393 85.2514 112.089 83.7761 111.848C82.3016 111.602 80.8169 111.417 79.322 111.292C78.4969 111.222 77.6302 111.198 76.8581 110.959C74.3907 110.198 71.8102 109.984 69.3006 109.431C67.435 109.021 65.5352 108.753 63.6554 108.399L58.6258 107.458C56.9476 107.154 55.2757 106.807 53.5974 106.498C52.9473 106.359 52.3072 106.177 51.6815 105.953C51.0952 105.727 50.522 105.468 49.9647 105.177C49.4711 104.922 49.5573 104.562 50.1874 104.466C51.0918 104.329 52.0041 104.256 52.9176 104.246C53.2928 104.242 53.6698 104.26 54.0457 104.293C54.4194 104.342 54.7945 104.391 55.1673 104.44L55.1804 104.398Z" fill="black"/>
<path d="M72.4991 66.9324L73.9416 68.0227L75.3592 69.1497C75.8615 69.5471 76.3662 69.9466 76.9001 70.2989C77.6111 70.7707 78.3282 71.2337 79.0469 71.6937L81.1942 73.0856L85.4929 75.859L90.7773 79.287L96.0812 82.6861C96.6089 83.0453 97.1099 83.4423 97.5805 83.874C97.7806 84.0429 97.9384 84.2568 98.0411 84.4986C98.1438 84.7404 98.1886 85.0033 98.172 85.2665C98.1416 85.9935 97.4883 86.3885 96.6681 86.0884C96.1393 85.8818 95.6397 85.6075 95.1817 85.2722C93.0716 83.7916 90.8694 82.447 88.5883 81.2466C87.9352 80.9523 87.3183 80.584 86.7493 80.1488C85.0623 78.6974 83.1106 77.6239 81.3485 76.2832C80.0406 75.2864 78.6589 74.3825 77.3444 73.3907C75.007 71.6129 72.6889 69.8134 70.4373 67.9288C69.5748 67.2225 68.8356 66.377 68.2496 65.4265C67.9952 65.0156 68.2433 64.735 68.7507 64.9265C69.4753 65.2064 70.1805 65.5337 70.8618 65.9063C71.4191 66.225 71.9568 66.5768 72.4721 66.9597L72.4991 66.9324Z" fill="black"/>
<path d="M105.602 46.7452C105.949 47.7344 106.291 48.7258 106.629 49.7192C106.786 50.2545 106.975 50.7797 107.194 51.292C107.806 52.6431 108.449 53.9808 109.092 55.3174C109.733 56.655 110.364 57.9954 110.974 59.3452C111.728 61.0058 112.465 62.6737 113.205 64.3401L115.399 69.3515C115.603 69.8732 115.743 70.4185 115.816 70.9753C115.905 71.5077 115.612 72.0161 115.133 72.4711C114.434 73.134 113.425 73.2658 112.909 72.6849C112.591 72.304 112.356 71.8603 112.219 71.3821C111.523 69.2444 110.578 67.1983 109.404 65.2861C109.08 64.7545 108.697 64.2208 108.58 63.6161C108.199 61.6894 107.228 60.007 106.65 58.1647C106.217 56.7985 105.656 55.4778 105.197 54.1203C104.787 52.9099 104.387 51.6967 103.996 50.4804L102.897 46.8051C102.605 45.848 102.546 44.8329 102.724 43.8444C102.736 43.7435 102.777 43.6483 102.843 43.571C102.909 43.4937 102.997 43.4378 103.094 43.4104C103.192 43.3831 103.295 43.3856 103.391 43.4175C103.486 43.4495 103.57 43.5096 103.631 43.5899C104.073 44.1142 104.482 44.6646 104.859 45.2382C105.128 45.7267 105.361 46.2347 105.556 46.7582L105.602 46.7452Z" fill="black"/>
<path d="M135.563 55.6968C135.534 55.9778 135.516 56.2594 135.47 56.5392L135.33 57.3786C135.272 57.6739 135.24 57.9734 135.233 58.2738C135.242 59.0756 135.282 59.8794 135.278 60.6799C135.282 61.4811 135.282 62.2821 135.253 63.0811C135.218 64.0652 135.166 65.0481 135.082 66.0287L134.83 68.9707C134.782 69.277 134.677 69.572 134.522 69.8406C134.385 70.1122 133.977 70.2648 133.452 70.3397C132.689 70.4487 131.899 70.2254 131.741 69.8145C131.654 69.5594 131.649 69.2824 131.729 69.0233C132.027 67.8493 132.092 66.6293 131.918 65.4338C131.872 65.0993 131.773 64.7474 131.909 64.4351C132.333 63.4368 132.215 62.3923 132.438 61.3775C132.61 60.6239 132.623 59.8544 132.772 59.0975C133.032 57.747 133.26 56.3948 133.565 55.048C133.683 54.489 133.971 53.9792 134.389 53.5894C134.441 53.5425 134.503 53.5075 134.57 53.487C134.636 53.4664 134.707 53.4607 134.776 53.4702C134.845 53.4798 134.911 53.5044 134.969 53.5423C135.027 53.5803 135.077 53.6306 135.113 53.6898C135.192 53.8685 135.264 54.0509 135.33 54.2347C135.398 54.4136 135.45 54.5982 135.487 54.7864C135.527 55.0861 135.54 55.389 135.524 55.6914L135.563 55.6968Z" fill="black"/>
<path d="M77.4498 141.061C78.0373 140.728 78.6272 140.402 79.2193 140.082C79.537 139.92 79.8449 139.739 80.1413 139.541C80.9066 138.979 81.6794 138.424 82.4635 137.883C83.2497 137.346 84.0554 136.839 84.8808 136.363C85.902 135.788 86.9409 135.243 88.0011 134.743C89.0609 134.242 90.1336 133.771 91.2192 133.329C91.5615 133.208 91.9213 133.145 92.2834 133.144C92.6335 133.124 92.969 133.401 93.2669 133.818C93.7001 134.427 93.7922 135.224 93.437 135.562C93.2063 135.763 92.9281 135.902 92.6295 135.964C91.2943 136.297 90.0365 136.893 88.9293 137.718C88.6192 137.943 88.3217 138.223 87.9516 138.298C86.7633 138.536 85.818 139.28 84.7393 139.75C84.3389 139.928 83.9482 140.127 83.5689 140.347C83.185 140.558 82.8076 140.782 82.4208 140.989C81.0424 141.73 79.6641 142.487 78.3194 143.309C77.7431 143.636 77.0787 143.77 76.4241 143.69C76.108 143.677 75.9204 143.406 75.9864 143.016L76.0911 142.641C76.1044 142.582 76.1292 142.526 76.164 142.476L76.2538 142.331C76.3737 142.141 76.5049 141.959 76.6467 141.785C76.7618 141.646 76.8913 141.52 77.0328 141.408C77.1783 141.304 77.3287 141.205 77.4721 141.098L77.4498 141.061Z" fill="black"/>
</g>
<defs>
<clipPath id="clip0_96_147">
<rect width="129.489" height="128.363" fill="white" transform="translate(0 111.3) rotate(-59.2642)"/>
</clipPath>
</defs>
</svg>
