<svg width="99" height="99" viewBox="0 0 99 99" fill="none" xmlns="http://www.w3.org/2000/svg">
<path d="M16.804 33.1108C19.032 34.2301 21.2595 35.5844 23.1284 37.458C24.0491 38.3965 24.8582 39.4384 25.5395 40.5629C26.2022 41.6694 26.7652 42.8326 27.2218 44.0389C28.1683 46.5745 28.6819 49.1976 29.0804 51.7679C29.1848 52.4056 29.279 53.043 29.3676 53.6783L29.6228 55.5806L27.2983 55.87C26.9256 52.8778 26.6336 49.8031 26.8894 46.684C27.133 43.5787 27.9491 40.4143 29.6048 37.6427C30.0203 36.9458 30.488 36.2814 31.0037 35.655C31.5208 35.0171 32.0955 34.428 32.7204 33.8952C32.8726 33.7551 33.038 33.6336 33.1998 33.5068C33.3639 33.3833 33.5218 33.2494 33.6917 33.1353C34.0307 32.9055 34.3669 32.6684 34.7217 32.4686C35.4178 32.0544 36.1434 31.6918 36.8926 31.3839C37.6283 31.0796 38.3803 30.8165 39.1451 30.5955C39.9026 30.384 40.6631 30.1884 41.4215 30.0353C42.94 29.7128 44.4488 29.4954 45.9366 29.2817L46.0833 32.1012L44.7575 32.0727C43.317 32.0456 41.8634 31.9684 40.3986 31.85C38.8992 31.7423 37.41 31.5222 35.9436 31.1915C34.3976 30.8461 32.9162 30.2576 31.5546 29.448C30.8512 29.0135 30.2009 28.4985 29.6169 27.9133C29.0352 27.3249 28.5289 26.6665 28.1096 25.9533C27.2814 24.5597 26.7734 23.1018 26.3392 21.6994C25.9008 20.2883 25.5357 18.8554 25.2453 17.4066C24.9477 15.9602 24.7351 14.4977 24.6087 13.0264C24.5477 12.2911 24.5003 11.555 24.4774 10.818L24.4604 10.2655C24.4561 10.0813 24.4607 9.89678 24.4453 9.71291C24.4241 9.34485 24.4195 8.97622 24.406 8.6076L26.9055 8.72592C26.6954 11.4155 26.4706 14.151 25.9523 16.8998C25.8816 17.2428 25.817 17.5873 25.7407 17.9294L25.4843 18.9543L25.1914 19.9751L24.8584 20.9892C24.3864 22.3514 23.7839 23.6647 23.0593 24.9109C21.6581 27.2667 19.7363 29.2705 17.4411 30.7688C16.5538 31.3655 15.583 31.8274 14.5604 32.1397C14.1869 32.2467 13.8055 32.3237 13.4199 32.37C13.248 32.3888 13.086 32.401 12.934 32.4066L12.8216 32.4099L12.7308 32.3985C12.6669 32.3898 12.6054 32.3814 12.5461 32.3733C11.8107 32.2659 11.4025 32.1379 11.969 31.5809C12.051 31.5036 12.1376 31.4315 12.2285 31.3649C12.276 31.328 12.3432 31.2862 12.386 31.2512C12.4258 31.2179 12.4674 31.1831 12.5107 31.1469C12.684 31.0032 12.8933 30.8628 13.1244 30.6966C13.3535 30.5265 13.6199 30.3647 13.8995 30.1648C14.0415 30.0701 14.1897 29.9711 14.3444 29.8679C14.4961 29.7605 14.6548 29.6514 14.8207 29.5407C15.679 28.952 16.4978 28.3078 17.2719 27.6121C18.0626 26.9129 18.7981 26.1538 19.472 25.3415C20.3905 24.2212 21.1626 22.9885 21.7696 21.6731C22.3831 20.3297 22.8713 18.9325 23.2278 17.4993C23.9931 14.6107 24.3391 11.5724 24.6639 8.51006L24.6641 8.50832C24.6911 8.25461 24.814 8.02082 25.0078 7.85484C25.2016 7.68886 25.4515 7.60325 25.7064 7.61554C25.9612 7.62783 26.2017 7.73709 26.3786 7.92095C26.5555 8.1048 26.6554 8.34934 26.6579 8.60447C26.6625 9.10127 26.646 9.59903 26.6808 10.0954C26.7123 10.5916 26.7497 11.0872 26.7999 11.5815C26.8959 12.5705 27.0386 13.5536 27.2015 14.5315C27.5239 16.4861 27.9963 18.413 28.6145 20.2951C29.01 21.5822 29.5237 22.8299 30.149 24.0223C30.4432 24.5612 30.7899 25.0698 31.1842 25.5404C31.5689 25.9826 31.9951 26.387 32.457 26.748C32.8904 27.0724 33.3506 27.3594 33.8326 27.606C34.3368 27.8542 34.8573 28.068 35.3904 28.2459C36.506 28.6019 37.6525 28.8528 38.8149 28.9953C41.1956 29.3051 43.67 29.3504 46.1586 29.4423L46.1732 29.4428C46.485 29.4543 46.781 29.5825 47.0027 29.8021C47.2243 30.0217 47.3553 30.3165 47.3697 30.6282C47.3841 30.9398 47.2808 31.2455 47.0803 31.4846C46.8799 31.7236 46.5969 31.8786 46.2875 31.9188C44.3981 32.164 42.5389 32.4206 40.7523 32.8368C38.973 33.2621 37.2499 33.8195 35.7284 34.6944C35.0794 35.0651 34.4666 35.4958 33.898 35.981C33.3329 36.4771 32.8152 37.0247 32.3517 37.6167C31.4264 38.8411 30.6989 40.2031 30.1959 41.653C29.6811 43.1242 29.349 44.6531 29.2071 46.2053C29.0595 47.7831 29.0267 49.3696 29.1089 50.9521C29.175 52.4927 29.3317 54.0424 29.5135 55.5977L29.5146 55.608C29.5472 55.8869 29.4678 56.1674 29.2939 56.3879C29.12 56.6083 28.8657 56.7509 28.5869 56.7842C28.3081 56.8175 28.0274 56.739 27.8064 56.5657C27.5854 56.3924 27.4422 56.1386 27.4081 55.8598C27.1027 53.3619 26.7805 50.8854 26.203 48.498C25.9318 47.3098 25.5852 46.1401 25.1653 44.9959C24.7461 43.8721 24.2221 42.7901 23.6001 41.7644C23.4369 41.5165 23.2853 41.2593 23.1136 41.0178L22.583 40.3047C22.2098 39.846 21.8129 39.407 21.3939 38.9896C20.5268 38.1586 19.5766 37.419 18.5581 36.7823C18.0453 36.4568 17.5167 36.1497 16.9767 35.8572C16.7067 35.7109 16.4341 35.568 16.1589 35.4285L15.7445 35.2212L15.5373 35.1195L15.3404 35.0314C15.0836 34.9079 14.8019 34.808 14.5281 34.6998C14.2433 34.607 13.9649 34.5015 13.6725 34.4216C13.097 34.2426 12.5027 34.1068 11.9088 33.9781C10.7569 33.7379 9.58815 33.587 8.41303 33.5267C7.27405 33.4706 6.15014 33.5377 5.21604 33.8611L4.94755 32.793L4.94668 32.7224H4.94775H4.95432H4.96311H4.98072L5.0159 32.7226C5.03873 32.723 5.06211 32.7236 5.09498 32.722L5.27675 32.716L5.64645 32.7007C5.89443 32.6896 6.14099 32.6786 6.38614 32.6677C6.87835 32.6481 7.36456 32.6287 7.84475 32.6096C8.80671 32.5749 9.74586 32.554 10.6635 32.5347C10.9757 32.5229 11.2883 32.5351 11.5986 32.5711C11.719 32.5808 11.7909 32.6171 11.9019 32.6167C11.9742 32.6147 12.0453 32.6348 12.1059 32.6743L12.288 32.4617C12.2623 32.5587 12.2266 32.6015 12.2436 32.6102C12.2552 32.6189 12.3185 32.5914 12.3763 32.4986C12.3833 32.4875 12.3877 32.4749 12.3893 32.4618C12.3909 32.4488 12.3895 32.4355 12.3854 32.423C12.3812 32.4105 12.3743 32.3991 12.3652 32.3896C12.3562 32.3801 12.3451 32.3727 12.3328 32.3679C12.3205 32.3632 12.3073 32.3612 12.2942 32.3622C12.2811 32.3631 12.2683 32.3669 12.2568 32.3734C12.2454 32.3799 12.2355 32.3888 12.2278 32.3995C12.2202 32.4102 12.215 32.4225 12.2127 32.4355L12.156 32.756C12.1454 32.8153 12.0654 32.9058 11.9168 33.0065C11.8136 33.0906 11.7013 33.1627 11.5819 33.2215C11.2139 33.4015 10.8258 33.5369 10.4258 33.625C9.55925 33.8243 8.68652 34.0005 7.80083 34.1681C7.35825 34.2515 6.91259 34.3318 6.46385 34.409L5.78471 34.5215L5.4357 34.575L5.25404 34.6007C5.18578 34.6097 5.08376 34.6188 4.99988 34.6261C4.69942 34.6519 4.39937 34.5719 4.15173 34.3998C3.90408 34.2277 3.72444 33.9744 3.64394 33.6838C3.56343 33.3931 3.58712 33.0835 3.71092 32.8085C3.83471 32.5335 4.0508 32.3105 4.32175 32.1781L4.40838 32.1363C5.10629 31.8115 5.84764 31.5897 6.60925 31.4777C6.96202 31.435 7.32187 31.3798 7.66779 31.3672C7.84203 31.3576 8.01806 31.3434 8.19111 31.3389L8.70767 31.3348C10.0784 31.3483 11.4438 31.5079 12.7807 31.8108C13.4562 31.9565 14.124 32.136 14.7816 32.3485L15.2803 32.515L15.7813 32.7056C15.947 32.7648 16.1175 32.8452 16.2859 32.9184L16.5388 33.0304L16.764 33.139C16.777 33.1292 16.7892 33.1201 16.804 33.1108Z" fill="#8021FA"/>
<path d="M76.0287 38.8905C77.1903 40.2832 78.127 41.849 78.805 43.5311C78.888 43.7417 78.9775 43.9494 79.054 44.1623L79.258 44.8111C79.3227 45.0282 79.3988 45.2415 79.4531 45.4615L79.6026 46.1256C79.6481 46.3478 79.71 46.566 79.7409 46.7912L79.8332 47.4661L79.8784 47.8033C79.894 47.9147 79.9091 48.0271 79.9169 48.1509C79.9352 48.3935 79.9445 48.6442 79.9382 48.9051C79.9319 49.3741 79.8557 49.8396 79.7119 50.2861C79.6226 50.5463 79.5031 50.7951 79.3559 51.0274C79.1919 51.2752 78.9932 51.498 78.7658 51.6892L78.7497 51.7027C78.5615 51.8607 78.3299 51.9581 78.0853 51.9821C77.8407 52.006 77.5946 51.9555 77.3793 51.8371C77.164 51.7187 76.9895 51.5379 76.8788 51.3185C76.768 51.0991 76.7262 50.8513 76.7589 50.6078C76.9112 49.4794 77.1276 48.3605 77.4069 47.2567C77.8613 45.4112 78.5654 43.6363 79.4998 41.9812C80.4572 40.2891 81.7084 38.781 83.1947 37.5275C84.7164 36.2703 86.474 35.3296 88.3643 34.7608C90.306 34.1835 92.359 34.087 94.3463 34.4797C94.6382 34.5399 94.9042 34.6894 95.1075 34.9073C95.3108 35.1253 95.4413 35.401 95.4811 35.6964C95.5209 35.9918 95.468 36.2922 95.3296 36.5562C95.1912 36.8202 94.9742 37.0347 94.7087 37.17L94.6824 37.1832C94.0356 37.5028 93.3425 37.7186 92.6286 37.8226C91.9722 37.9147 91.3083 37.9411 90.6468 37.9016C90.0126 37.8702 89.4086 37.795 88.8279 37.7117C88.2488 37.6266 87.6962 37.5438 87.0964 37.4342C86.2337 37.2891 85.3893 37.0503 84.5784 36.722C84.1345 36.5357 83.71 36.3061 83.3112 36.0366C82.9039 35.7586 82.528 35.4374 82.19 35.0785C81.5623 34.3907 81.0495 33.6063 80.6711 32.7555C80.3207 31.9696 80.0456 31.1521 79.8496 30.3142C79.0584 27.0671 79.1252 23.6701 80.0435 20.4566L80.0448 20.4519C80.1252 20.1718 80.2857 19.9214 80.5067 19.7314C80.7276 19.5414 80.9993 19.4202 81.2882 19.3827C81.5772 19.3452 81.8708 19.393 82.1329 19.5202C82.395 19.6475 82.6142 19.8486 82.7634 20.0989C83.2313 20.9118 83.4845 21.8303 83.4993 22.7681C83.5145 23.5902 83.4127 24.4103 83.1971 25.2037C83.1018 25.5866 82.9782 25.9406 82.8605 26.2983C82.729 26.6512 82.6008 27.0059 82.4447 27.3481C82.1469 28.0379 81.7976 28.7042 81.3998 29.3416C79.8188 31.9157 77.527 33.9776 74.8008 35.2787C73.0664 36.0917 71.1831 36.5383 69.2683 36.5908C68.517 36.6168 67.7668 36.5138 67.0504 36.2862C66.9051 36.2375 66.7692 36.1873 66.6425 36.1344C66.5162 36.0764 66.3988 36.017 66.2905 35.9565C66.0923 35.8505 65.9078 35.7204 65.7414 35.5693C65.3035 35.1748 65.3867 34.8572 65.8216 34.6496C66.2582 34.4464 67.047 34.3391 68.1187 34.2315L68.6322 34.1761L69.1518 34.1066C69.4994 34.0536 69.8517 34.0094 70.2026 33.9436C70.903 33.8198 71.5954 33.6543 72.2762 33.4479C73.5898 33.0394 74.823 32.4071 75.9216 31.5791C78.1418 29.9103 79.7543 27.5604 80.5127 24.8886C80.6938 24.2798 80.7857 23.648 80.7856 23.0129C80.7936 22.4887 80.6529 21.973 80.3797 21.5256L82.715 21.2185C82.4771 22.1638 82.3285 23.1293 82.2709 24.1023C82.1597 25.8988 82.4046 27.7462 82.714 29.4436C82.9283 30.6532 83.3036 31.7983 83.9136 32.6787C84.2009 33.102 84.5649 33.4678 84.9868 33.7571C85.4469 34.0497 85.9481 34.2719 86.4739 34.4165C87.0734 34.5821 87.6824 34.7116 88.2975 34.8041C88.9528 34.91 89.6052 35.0163 90.2191 35.079C91.4539 35.2119 92.5913 35.1615 93.4608 34.7354L93.7613 37.1525L93.3302 37.0706L93.1149 37.0281L92.8963 37.0023L92.4589 36.9493L92.0172 36.9271C91.013 36.889 90.0088 37.0066 89.0406 37.2759C88.0548 37.5525 87.1096 37.9575 86.2294 38.4804C85.3435 39.0042 84.5258 39.6355 83.7949 40.36C83.057 41.0955 82.4015 41.9094 81.8402 42.7871C80.2989 45.1684 79.3898 47.9883 79.0124 50.8702L77.3071 49.9514C77.4088 49.8658 77.4858 49.7544 77.5299 49.6289C77.6008 49.4336 77.6413 49.2285 77.6499 49.0208C77.6633 48.7628 77.6565 48.5041 77.6295 48.2471L77.5069 47.3874C77.4648 47.1003 77.4067 46.8158 77.3328 46.5351L77.2353 46.1101C77.2056 45.9676 77.1498 45.832 77.1086 45.6924C77.0162 45.4162 76.9375 45.1348 76.8353 44.8615L76.5005 44.0507C76.0154 42.9795 75.4121 41.9657 74.7021 41.0283C73.9751 40.0971 73.1524 39.2449 72.2474 38.4856C71.1045 37.5511 69.8606 36.7476 68.5388 36.0901C68.4594 36.0485 68.3813 36.0037 68.3012 35.9643L68.0575 35.8571L67.573 35.6378C67.2549 35.4762 66.9236 35.369 66.5989 35.2383L66.1122 35.044C65.9529 34.9867 65.795 34.9351 65.6361 34.8948C65.3224 34.7972 64.9865 34.7957 64.6719 34.8907C64.5949 34.9201 64.5249 34.9563 64.4696 34.9813C64.4685 34.9818 64.4674 34.9826 64.4666 34.9835C64.4657 34.9844 64.465 34.9855 64.4646 34.9867L64.4582 35.0045C64.4374 35.0693 64.4419 35.1395 64.4707 35.2011C64.4968 35.2577 64.5341 35.3083 64.5804 35.3499C64.6641 35.4247 64.7688 35.4718 64.8803 35.4849C64.933 35.492 64.9866 35.4879 65.0376 35.4728C65.0832 35.464 65.1281 35.4519 65.1719 35.4365C65.2458 35.4086 65.2996 35.391 65.3302 35.4107C65.3598 35.4291 65.3686 35.4872 65.325 35.5863C65.293 35.6468 65.2506 35.7012 65.1996 35.7468C65.1383 35.8201 65.0585 35.8757 64.9685 35.9077C64.7527 35.995 64.5129 36.0028 64.2919 35.9296C64.1285 35.8755 63.9818 35.78 63.8662 35.6524C63.7833 35.5599 63.7178 35.453 63.673 35.337C63.6216 35.1995 63.5983 35.0531 63.6045 34.9065C63.6088 34.7952 63.645 34.6875 63.7088 34.5962L63.869 34.3667C63.953 34.2459 64.0514 34.1359 64.162 34.0391C64.2237 33.9851 64.2892 33.9357 64.3581 33.8913C64.4315 33.85 64.5077 33.8139 64.586 33.7831C64.9563 33.6424 65.3502 33.5742 65.7463 33.5823C66.0558 33.5836 66.3646 33.6108 66.6696 33.6634L67.5081 33.7968L67.719 33.8331L67.9258 33.8853L68.3406 33.9923C69.459 34.283 70.5391 34.7051 71.5583 35.2497C73.2418 36.1922 74.7414 37.4308 75.9849 38.906C75.999 38.9009 76.0122 38.8962 76.0287 38.8905Z" fill="#8021FA"/>
<path d="M49.9207 68.8155L50.8039 69.31L51.6538 69.8612L51.8653 70.0002L52.0682 70.1523L52.4734 70.457C52.6076 70.5596 52.7444 70.6586 52.8761 70.7643L53.2598 71.0966C53.7731 71.5376 54.2613 72.007 54.7221 72.5026L55.3844 73.2712C55.6014 73.5301 55.7925 73.8087 55.9966 74.0768C56.7793 75.1687 57.443 76.3411 57.9762 77.5742C58.4921 78.8057 58.8831 80.086 59.1432 81.3956C59.2025 81.7438 59.2748 82.0898 59.3197 82.4402L59.4364 83.4938L59.4878 84.5531C59.506 84.906 59.4828 85.2604 59.4817 85.6137C59.4357 87.0295 59.2341 88.436 58.8804 89.8078L58.6038 90.773C58.5242 91.0503 58.3472 91.2895 58.1052 91.4467C57.8633 91.6038 57.5727 91.6683 57.287 91.6281C57.0013 91.588 56.7397 91.4461 56.5504 91.2284C56.361 91.0107 56.2567 90.732 56.2566 90.4435L56.257 90.3876C56.2597 87.2728 56.253 84.0609 56.8517 80.8347C57.1459 79.2017 57.6272 77.6081 58.2862 76.0854C58.9593 74.5204 59.8822 73.0751 61.0188 71.806C62.1845 70.5491 63.5541 69.498 65.0697 68.697C66.5407 67.9291 68.0881 67.3175 69.6867 66.8723C70.4725 66.6479 71.2603 66.4561 72.0511 66.2865C72.8437 66.1189 73.6556 65.9712 74.4943 65.8796C75.3515 65.7783 76.2159 65.7527 77.0776 65.8031C77.9816 65.8564 78.875 66.0253 79.7359 66.3058C80.0196 66.3983 80.2679 66.5761 80.4468 66.815C80.6257 67.0538 80.7265 67.3421 80.7355 67.6403C80.7445 67.9386 80.6612 68.2324 80.497 68.4816C80.3328 68.7307 80.0957 68.9232 79.818 69.0326L79.7869 69.0447C78.4312 69.5492 76.9978 69.8129 75.5514 69.8239C74.0165 69.8332 72.4837 69.7113 70.9696 69.4595C69.4685 69.2512 67.9822 68.9468 66.5201 68.5481C65.7644 68.3388 65.0223 68.0835 64.2978 67.7837C63.5515 67.4809 62.8315 67.1172 62.1449 66.6963C61.4406 66.2665 60.7797 65.7694 60.1713 65.2121C59.566 64.6517 59.0181 64.0323 58.5357 63.3632C57.6184 62.0699 56.8736 60.6626 56.3203 59.1768C55.2325 56.3223 54.5605 53.3263 54.325 50.2806C54.2974 49.9008 54.2737 49.5206 54.2607 49.1399C54.2522 48.9497 54.2461 48.7593 54.2437 48.5689C54.2407 48.3768 54.2338 48.1991 54.2377 47.9655C54.2376 47.4524 54.3135 46.9422 54.4628 46.4514C54.5652 46.127 54.718 45.8208 54.9158 45.5441C55.1519 45.2169 55.4573 44.9457 55.81 44.7498L55.825 44.7416C55.9976 44.6475 56.1871 44.5882 56.3827 44.5673C56.5782 44.5464 56.7759 44.5642 56.9645 44.6197C57.1532 44.6752 57.329 44.7673 57.4821 44.8908C57.6351 45.0143 57.7624 45.1667 57.8565 45.3393C57.9576 45.5264 58.0184 45.7325 58.0352 45.9445C58.4768 52.0125 56.9106 58.0575 53.5777 63.1476C52.8017 64.3303 51.8819 65.412 50.8394 66.3681C50.3055 66.8506 49.7337 67.2893 49.1293 67.6799C48.5224 68.0724 47.8804 68.4077 47.2115 68.6814C46.1506 69.1318 45.0018 69.3368 43.8506 69.2812C43.1126 69.2539 42.392 69.0495 41.7496 68.6852C41.0586 68.2452 41.1955 67.9413 41.7973 67.7998C42.1033 67.7115 42.5308 67.6568 43.0679 67.5543C43.7169 67.4332 44.3573 67.2702 44.9851 67.0661C45.9489 66.7404 46.86 66.2759 47.6898 65.6874C48.5532 65.0691 49.3419 64.3527 50.0401 63.5525C51.048 62.3826 51.9134 61.097 52.6178 59.7229C53.3479 58.3433 53.941 56.8954 54.3884 55.4C55.2898 52.4088 55.6124 49.2731 55.339 46.1611L57.1195 47.117C57.1199 47.118 57.1225 47.1217 57.1199 47.1175L57.1132 47.1079C57.1143 47.1099 57.1157 47.1117 57.1171 47.1135C57.1208 47.1182 57.1243 47.1215 57.1223 47.119V47.1227C57.1122 47.1372 57.1037 47.1528 57.0969 47.1693C57.0506 47.2787 57.0206 47.3945 57.008 47.5127C56.9844 47.6981 56.975 47.885 56.98 48.0718L57.0063 48.7796C57.0553 49.7419 57.1573 50.7004 57.2967 51.6521C57.5832 53.5528 58.0624 55.4193 58.7269 57.2229C59.1858 58.5038 59.7845 59.7303 60.5121 60.8801C60.8595 61.4206 61.249 61.9329 61.6769 62.4122C61.8829 62.6429 62.1003 62.8631 62.3283 63.072C62.4435 63.174 62.5508 63.2833 62.6689 63.3814L63.0231 63.6749C64.0847 64.4884 65.2744 65.1193 66.5434 65.5417C67.8858 65.9955 69.2639 66.336 70.6632 66.5596C72.0654 66.8203 73.484 66.983 74.9088 67.0467C76.2322 67.1107 77.5555 66.9188 78.8061 66.4815L78.8511 68.9038C77.613 68.4827 76.2145 68.4138 74.7781 68.5584C74.0597 68.6263 73.3303 68.7453 72.5933 68.8871C71.8553 69.0312 71.1221 69.1933 70.4015 69.3799C68.8577 69.7602 67.3681 70.3341 65.9682 71.0879C64.6075 71.818 63.4005 72.8037 62.4134 73.9911C61.4352 75.2103 60.6624 76.581 60.1256 78.049C59.5722 79.5522 59.1857 81.1116 58.9732 82.6993C58.6163 85.1998 58.5782 87.7828 58.5451 90.4004L56.4317 90.0534C57.8395 85.9036 57.3484 81.1205 55.2416 77.2302C55.1038 76.9906 54.9816 76.7408 54.8317 76.5085L54.3811 75.812C54.2279 75.5818 54.0524 75.3682 53.8895 75.1449C53.8051 75.0356 53.7271 74.9207 53.6375 74.8158L53.3656 74.5037C53.0048 74.0853 52.6232 73.6853 52.2221 73.3053C51.8014 72.9461 51.3936 72.5699 50.9377 72.2517C50.7192 72.0804 50.492 71.9203 50.2572 71.7721C50.0222 71.624 49.7928 71.4663 49.5534 71.3248L48.8224 70.9208C48.5805 70.7823 48.3204 70.6789 48.0705 70.5557C47.0569 70.0841 45.9971 69.7192 44.908 69.4668C42.313 68.8575 39.6183 68.8052 37.0016 69.3132L36.9742 68.2746C38.5412 68.7511 40.1859 68.918 41.8167 68.7658C42.7423 68.6787 43.2122 68.6538 43.2083 68.8529C43.2021 68.9409 43.0798 69.0933 42.8163 69.2669C42.6564 69.3722 42.489 69.4656 42.3156 69.5466C42.2142 69.596 42.1037 69.6459 41.9829 69.6924C41.9226 69.7155 41.8605 69.7423 41.7951 69.7633C41.7291 69.7825 41.6608 69.8014 41.5904 69.82C39.9549 70.2496 38.2463 70.3236 36.5798 70.0368C36.3039 69.9885 36.0522 69.8492 35.8647 69.6412C35.6772 69.4332 35.5647 69.1684 35.5451 68.8891C35.5255 68.6098 35.6 68.3319 35.7566 68.0997C35.9132 67.8676 36.143 67.6945 36.4093 67.6081L36.515 67.5742C38.1706 67.0464 39.898 66.7787 41.6357 66.7806C43.0627 66.7764 44.484 66.9582 45.864 67.3213C47.2535 67.6809 48.5996 68.1908 49.8786 68.8419C49.8921 68.8326 49.905 68.8241 49.9207 68.8155Z" fill="#8021FA"/>
</svg>
