<svg width="32" height="32" viewBox="0 0 32 32" fill="none" xmlns="http://www.w3.org/2000/svg">
<path d="M31.0874 22.6123L24.0873 19.6123C23.7883 19.4848 23.4559 19.458 23.1403 19.5358C22.8247 19.6135 22.5429 19.7917 22.3373 20.0435L19.2372 23.8311C14.372 21.5372 10.4566 17.6218 8.16265 12.7565L11.9502 9.65648C12.2025 9.45127 12.3811 9.16945 12.4589 8.85368C12.5367 8.53791 12.5095 8.20539 12.3815 7.90645L9.38142 0.906324C9.24086 0.584074 8.99227 0.320967 8.6785 0.162373C8.36473 0.00377829 8.00546 -0.0403635 7.66264 0.037559L1.16252 1.53759C0.831996 1.61391 0.5371 1.80001 0.325965 2.06552C0.11483 2.33103 -7.61395e-05 2.66026 3.7852e-08 2.99949C3.7852e-08 19.031 12.994 32 29.0005 32C29.3398 32.0002 29.6692 31.8854 29.9349 31.6742C30.2005 31.4631 30.3867 31.1681 30.463 30.8375L31.9631 24.3374C32.0405 23.9929 31.9954 23.6322 31.8356 23.3173C31.6758 23.0025 31.4112 22.7532 31.0874 22.6123Z" fill="#A4A4A4"/>
</svg>
