<svg width="459" height="26" viewBox="0 0 459 26" fill="none" xmlns="http://www.w3.org/2000/svg">
<path d="M379.644 6.20935C384.476 6.12997 389.6 5.77277 394.139 6.0109C409.659 6.88407 424.886 6.88407 440.405 6.0109C445.53 5.73308 451.387 6.36809 459 6.6856C447.726 11.2102 436.16 13.79 416.394 13.6313C377.448 13.3137 338.503 13.3535 299.557 13.5519C283.159 13.6313 266.761 14.4648 250.363 14.8617C237.771 15.1792 225.179 15.1791 212.588 15.576C183.598 16.5286 154.609 17.5606 125.912 18.8306C112.589 19.426 99.5581 20.6563 86.2346 21.4104C65.2976 22.6408 43.9217 23.2758 24.3025 25.8159C21.9599 26.1334 18.592 25.935 14.3461 25.9747C9.22164 23.9903 3.95123 21.8867 0.144516 20.4182C-2.05167 16.3302 21.8132 14.0678 2.04759 10.6546C20.3491 7.28095 32.0622 5.89185 49.046 5.3362C70.2758 4.66148 91.6515 4.18519 113.028 3.62953C128.547 3.23264 144.067 2.8754 159.441 2.39912C165.151 2.20067 170.129 1.52601 175.546 2.95483C179.353 3.98676 184.77 3.55017 188.284 2.35949C195.312 0.0178117 203.511 -0.379161 214.345 0.29556C227.229 1.12904 241.285 0.136822 253.438 2.59757C256.219 3.15322 262.954 2.63726 267.347 2.20067C281.695 0.732164 294.579 0.930631 309.22 2.71666C322.104 4.26455 337.624 4.62173 352.119 3.39136C364.418 2.35943 372.91 3.70887 379.937 6.16962C377.888 6.12993 375.984 6.12999 374.081 6.12999C375.984 6.20937 377.741 6.20935 379.644 6.20935Z" fill="#8021FA"/>
</svg>
